<svg width="36" height="36" viewBox="0 0 36 36" fill="none" xmlns="http://www.w3.org/2000/svg">
<path d="M36 18C36 27.9411 27.9411 36 18 36C8.05887 36 0 27.9411 0 18C0 8.05887 8.05887 0 18 0C27.9411 0 36 8.05887 36 18Z" fill="#54759E"/>
<path d="M34.9 18C34.9 27.3336 27.3336 34.9 18 34.9C8.66639 34.9 1.1 27.3336 1.1 18C1.1 8.66639 8.66639 1.1 18 1.1C27.3336 1.1 34.9 8.66639 34.9 18Z" stroke="white" stroke-width="0.2"/>
<path d="M33.8 18C33.8 26.7261 26.7261 33.8 18 33.8C9.2739 33.8 2.2 26.7261 2.2 18C2.2 9.2739 9.2739 2.2 18 2.2C26.7261 2.2 33.8 9.2739 33.8 18Z" stroke="white" stroke-width="0.4"/>
<path d="M8.19 10.2198C7.72661 11.3597 5.98959 11.9909 5.179 12.1639C6.07259 9.89843 9.3762 5.92385 14.6763 4.44263C20.0461 2.94193 24.4493 5.58002 25.9275 6.61114C28.102 8.26176 32.3233 12.922 31.813 18.3578C31.3027 23.7935 29.0757 26.8038 28.026 27.6294C26.1713 26.8226 27.2851 23.1167 28.1164 21.5539C27.3023 22.0613 25.7709 23.8063 24.9345 24.349C21.9703 24.569 20.7331 23.2669 20.485 22.5883C19.7886 19.622 24.3359 18.4151 26.6967 18.1824C26.9453 18.2974 27.2145 19.7984 27.318 20.5346C28.1888 19.6309 28.3252 18.1946 28.2845 17.5894C29.8179 17.0662 30.0705 15.2348 30.005 14.3845C29.4438 14.8658 28.5962 14.9107 28.2425 14.873C28.7533 14.6205 29.6581 13.9378 30.0467 13.628C30.2058 12.1362 27.8834 11.7262 26.7023 11.7076C26.3561 10.4238 23.2025 11.6466 21.9036 11.7179C25.7125 9.18393 20.8866 8.43677 17.9853 8.34927C14.8294 13.7126 9.63926 15.6033 7.6081 15.0992C12.961 13.6052 13.4125 9.45616 12.9692 7.56841C12.3642 8.87276 11.3373 10.1743 10.8995 10.662C8.36628 13.3827 5.95088 13.7249 5.05983 13.556C8.04559 12.4743 8.39067 10.8811 8.19 10.2198Z" fill="#3F5B7D"/>
<path d="M20.2754 13.0193L17.6857 11.9929C18.1837 11.8069 19.3107 11.5159 19.8349 11.8398C20.359 12.1637 20.3469 12.7611 20.2754 13.0193Z" fill="#636363"/>
<path d="M27.0832 28.6038C26.9278 28.9087 26.1119 29.4247 25.7234 29.6446C25.1307 28.8187 25.3225 27.3694 25.4925 26.748C25.6909 27.3995 26.6357 28.2567 27.0832 28.6038Z" fill="#636363"/>
<path d="M11.0959 25.0006C9.98358 27.0685 9.60655 28.7831 9.55708 29.382C11.0317 30.5047 13.5968 31.6972 16.9026 32.1036C19.5473 32.4287 23.2081 30.9886 24.7079 30.2279C21.9619 29.6125 19.5618 26.7254 18.705 25.3588C18.6376 27.2875 19.1933 28.6681 19.4796 29.1173C15.2761 27.6458 13.6416 22.7371 13.3498 20.4666C10.9638 25.0335 12.974 29.2432 14.2774 30.7772C12.3386 30.5589 11.3486 26.8352 11.0959 25.0006Z" fill="#636363"/>
<path d="M8.19 10.2198C7.72661 11.3597 5.98959 11.9909 5.179 12.1639C6.07259 9.89843 9.3762 5.92385 14.6763 4.44263C20.0461 2.94193 24.4493 5.58002 25.9275 6.61114C28.102 8.26176 32.3233 12.922 31.813 18.3578C31.3027 23.7935 29.0757 26.8038 28.026 27.6294C26.1713 26.8226 27.2851 23.1167 28.1164 21.5539C27.3023 22.0613 25.7709 23.8063 24.9345 24.349C21.9703 24.569 20.7331 23.2669 20.485 22.5883C19.7886 19.622 24.3359 18.4151 26.6967 18.1824C26.9453 18.2974 27.2145 19.7984 27.318 20.5346C28.1888 19.6309 28.3252 18.1946 28.2845 17.5894C29.8179 17.0662 30.0705 15.2348 30.005 14.3845C29.4438 14.8658 28.5962 14.9107 28.2425 14.873C28.7533 14.6205 29.6581 13.9378 30.0467 13.628C30.2058 12.1362 27.8834 11.7262 26.7023 11.7076C26.3561 10.4238 23.2025 11.6466 21.9036 11.7179C25.7125 9.18393 20.8866 8.43677 17.9853 8.34927C14.8294 13.7126 9.63926 15.6033 7.6081 15.0992C12.961 13.6052 13.4125 9.45616 12.9692 7.56841C12.3642 8.87276 11.3373 10.1743 10.8995 10.662C8.36628 13.3827 5.95088 13.7249 5.05983 13.556C8.04559 12.4743 8.39067 10.8811 8.19 10.2198Z" stroke="#636363" stroke-width="0.3"/>
<path d="M20.2754 13.0193L17.6857 11.9929C18.1837 11.8069 19.3107 11.5159 19.8349 11.8398C20.359 12.1637 20.3469 12.7611 20.2754 13.0193Z" stroke="#636363" stroke-width="0.3"/>
<path d="M27.0832 28.6038C26.9278 28.9087 26.1119 29.4247 25.7234 29.6446C25.1307 28.8187 25.3225 27.3694 25.4925 26.748C25.6909 27.3995 26.6357 28.2567 27.0832 28.6038Z" stroke="#636363" stroke-width="0.3"/>
<path d="M11.0959 25.0006C9.98358 27.0685 9.60655 28.7831 9.55708 29.382C11.0317 30.5047 13.5968 31.6972 16.9026 32.1036C19.5473 32.4287 23.2081 30.9886 24.7079 30.2279C21.9619 29.6125 19.5618 26.7254 18.705 25.3588C18.6376 27.2875 19.1933 28.6681 19.4796 29.1173C15.2761 27.6458 13.6416 22.7371 13.3498 20.4666C10.9638 25.0335 12.974 29.2432 14.2774 30.7772C12.3386 30.5589 11.3486 26.8352 11.0959 25.0006Z" stroke="#636363" stroke-width="0.3"/>
<path d="M17.6987 13H15.3654C13.3403 13 11.6987 14.6416 11.6987 16.6667V16.6667M11.6987 16.6667H17.1532M11.6987 16.6667V24" stroke="#113150" stroke-width="2"/>
<path d="M17.4375 12.7556H15.1042C13.0792 12.7556 11.4375 14.3973 11.4375 16.4223V16.4223M11.4375 16.4223H16.8921M11.4375 16.4223V23.7556" stroke="white" stroke-width="2"/>
<path d="M14.2885 24V21.5M14.2885 21.5V19H16.0885C16.4885 19 17.2885 19.25 17.2885 20.25C17.2885 21.25 16.4885 21.5 16.0885 21.5H14.2885ZM14.2885 21.5C15.0885 21.9167 17.2885 23 17.2885 24" stroke="#113150" stroke-width="1.5"/>
<path d="M14.1284 23.7556V21.2556M14.1284 21.2556V18.7556H15.9284C16.3284 18.7556 17.1284 19.0056 17.1284 20.0056C17.1284 21.0056 16.3284 21.2556 15.9284 21.2556H14.1284ZM14.1284 21.2556C14.9284 21.6723 17.1284 22.7556 17.1284 23.7556" stroke="white" stroke-width="1.5"/>
<path d="M24.5625 15.5V15.5C24.5625 14.1193 23.4432 13 22.0625 13V13C20.6817 13 19.5625 14.1193 19.5625 15.5V20.5C19.5625 21.8807 20.6817 23 22.0625 23V23C23.4432 23 24.5625 21.8807 24.5625 20.5V20.5" stroke="#113150" stroke-width="2"/>
<path d="M24.2885 20.2556C24.2885 21.6363 23.1693 22.7556 21.7885 22.7556C20.4078 22.7556 19.2885 21.6363 19.2885 20.2556V15.2556C19.2885 13.8749 20.4078 12.7556 21.7885 12.7556C23.1693 12.7556 24.2885 13.8749 24.2885 15.2556" stroke="white" stroke-width="2"/>
<path d="M6.81892 9.39703L6.3196 10.2403L7.22309 10.7753L7.67247 10.0163C7.68198 10.0003 7.69953 9.98897 7.7251 9.98242C7.74903 9.96947 7.77305 9.97013 7.79714 9.9844L7.8393 10.0094C7.87544 10.0308 7.89359 10.0551 7.89375 10.0823C7.89629 10.1055 7.8928 10.1251 7.88329 10.1412L7.4339 10.9001L8.45183 11.5028C8.47191 11.5147 8.48842 11.5326 8.50136 11.5566C8.51029 11.5781 8.50643 11.603 8.48979 11.6311L8.46482 11.6732C8.43391 11.7254 8.39035 11.7349 8.33413 11.7016L6.07541 10.3642C6.05132 10.3499 6.03481 10.332 6.02588 10.3104C6.01294 10.2865 6.01479 10.2605 6.03143 10.2323L6.60208 9.26863C6.63299 9.21643 6.67655 9.20697 6.73277 9.24026L6.78096 9.26879C6.80907 9.28543 6.82521 9.30855 6.82938 9.33814C6.83192 9.36133 6.82843 9.38096 6.81892 9.39703Z" fill="#113150"/>
<path d="M8.24787 8.69484L8.16676 8.79127C8.10668 8.86269 8.08869 8.94208 8.11279 9.02943C8.13332 9.11377 8.18822 9.19349 8.2775 9.26859L9.31676 10.1427C9.36318 10.1818 9.37138 10.2192 9.34134 10.2549L9.3143 10.287C9.29027 10.3156 9.25504 10.3103 9.20861 10.2713L7.76759 9.05922C7.72474 9.02317 7.71532 8.99086 7.73935 8.96229L7.76639 8.93015C7.77841 8.91586 7.79099 8.90815 7.80414 8.90702C7.81729 8.90588 7.84773 8.91319 7.89546 8.92895C7.90951 8.86149 7.92319 8.80897 7.93651 8.77139C7.94926 8.72723 7.97216 8.68551 8.0052 8.64623L8.0818 8.55516C8.09382 8.54087 8.11147 8.53438 8.13477 8.53568C8.1545 8.53398 8.17329 8.54064 8.19114 8.55566L8.22864 8.5872C8.2715 8.62325 8.27791 8.65913 8.24787 8.69484Z" fill="#113150"/>
<path d="M10.7828 7.49406L9.99149 8.17349L10.2012 8.4178C10.3593 8.60191 10.5163 8.62709 10.672 8.49334L11.2085 8.03279C11.251 7.99631 11.2904 7.99931 11.3269 8.0418L11.3588 8.07898C11.3771 8.10022 11.3837 8.12223 11.3786 8.14502C11.3736 8.1678 11.364 8.18527 11.3498 8.19743L10.8134 8.65798C10.693 8.76134 10.5658 8.80295 10.4316 8.78281C10.2974 8.76268 10.1726 8.68533 10.0571 8.55079L9.46431 7.86035C9.34879 7.7258 9.29123 7.5907 9.29162 7.45505C9.29202 7.3194 9.35241 7.19989 9.47279 7.09653L9.70117 6.90046C9.82509 6.79406 9.95413 6.75093 10.0883 6.77106C10.2224 6.7912 10.3473 6.86854 10.4628 7.00309L10.7774 7.36955C10.82 7.41912 10.8218 7.46062 10.7828 7.49406ZM10.3141 7.13077C10.159 6.95019 10.0019 6.9283 9.84252 7.0651L9.61415 7.26117C9.45836 7.39493 9.45798 7.5521 9.61302 7.73267L9.85013 8.00885L10.5512 7.40694L10.3141 7.13077Z" fill="#113150"/>
<path d="M12.3699 6.43795L11.4789 6.98015L11.6463 7.25522C11.7725 7.46252 11.9232 7.5128 12.0986 7.40606L12.7026 7.03853C12.7504 7.00942 12.7889 7.01879 12.818 7.06663L12.8435 7.10848C12.8581 7.1324 12.861 7.15519 12.8523 7.17686C12.8437 7.19852 12.8314 7.21421 12.8154 7.22391L12.2114 7.59144C12.0759 7.67392 11.9436 7.69435 11.8145 7.65274C11.6853 7.61113 11.5747 7.51458 11.4825 7.36309L11.0095 6.58571C10.9173 6.43422 10.8824 6.29158 10.9047 6.15778C10.9271 6.02399 11.0061 5.91585 11.1416 5.83337L11.3987 5.67689C11.5383 5.59199 11.6726 5.57034 11.8017 5.61195C11.9308 5.65356 12.0415 5.75011 12.1337 5.9016L12.3847 6.31421C12.4187 6.37002 12.4138 6.41127 12.3699 6.43795ZM11.9662 6.00349C11.8425 5.80018 11.6909 5.7531 11.5115 5.86227L11.2544 6.01874C11.079 6.12548 11.0532 6.28051 11.1769 6.48382L11.3661 6.79478L12.1554 6.31444L11.9662 6.00349Z" fill="#113150"/>
<path d="M14.4205 6.50071L14.3815 6.51639C14.3598 6.52509 14.3429 6.52686 14.3308 6.52168C14.3187 6.51651 14.2952 6.49576 14.2605 6.45943C14.2138 6.51844 14.1714 6.56315 14.1334 6.59356C14.0953 6.62396 14.0524 6.64874 14.0048 6.6679L13.771 6.76194C13.6238 6.82115 13.4908 6.82184 13.372 6.76401C13.2531 6.70618 13.1571 6.58635 13.084 6.40451L12.7418 5.55375C12.6704 5.37624 12.6575 5.22548 12.7032 5.10147C12.7472 4.97313 12.8427 4.87936 12.9899 4.82015L13.2237 4.7261C13.2714 4.70695 13.3194 4.69516 13.368 4.69073C13.4165 4.6863 13.4862 4.69093 13.5773 4.70462L13.2925 3.99674C13.2699 3.94046 13.2802 3.90361 13.3235 3.8862L13.3625 3.87052C13.4144 3.84962 13.4517 3.86732 13.4744 3.9236L14.4644 6.38494C14.4871 6.44122 14.4724 6.47981 14.4205 6.50071ZM13.7497 5.13325C13.6626 4.91677 13.513 4.8512 13.3008 4.93653L13.0735 5.02796C12.883 5.10459 12.8331 5.25547 12.9236 5.48061L13.2632 6.32487C13.3538 6.55 13.4943 6.62426 13.6848 6.54763L13.9121 6.4562C14.1243 6.37087 14.1885 6.22429 14.1049 6.01647L13.7497 5.13325Z" fill="#113150"/>
<path d="M17.1186 5.86928L17.0704 5.87817C17.0429 5.88325 17.0205 5.87788 17.0034 5.86206C16.9908 5.84539 16.9824 5.82559 16.9782 5.80264L16.7255 4.43274C16.6824 4.19869 16.5507 4.10198 16.3304 4.1426L16.1927 4.168C16.078 4.18915 15.9944 4.23778 15.942 4.31388C15.8887 4.38539 15.8723 4.47622 15.8926 4.58636L16.1452 5.95626C16.1495 5.97921 16.1464 6.00113 16.136 6.02202C16.1256 6.04292 16.109 6.05548 16.086 6.05972L16.0309 6.06987C15.9805 6.07918 15.9497 6.05401 15.9387 5.99435L15.6861 4.62445C15.6429 4.3904 15.5112 4.29368 15.2909 4.33431L15.1394 4.36224C14.91 4.40456 14.816 4.53816 14.8575 4.76303L15.1126 6.1467C15.1236 6.20636 15.0993 6.24169 15.0397 6.25269L14.9915 6.26158C14.9639 6.26666 14.9416 6.26129 14.9244 6.24547C14.9119 6.2288 14.9035 6.209 14.8992 6.18605L14.5577 4.33428C14.5535 4.31133 14.5547 4.29213 14.5613 4.27667C14.5717 4.25577 14.5907 4.24279 14.6182 4.23771L14.6664 4.22882C14.6848 4.22544 14.7017 4.22706 14.7171 4.2337C14.7372 4.2395 14.7621 4.25863 14.7918 4.29112C14.8455 4.24799 14.8968 4.21718 14.9456 4.19869C14.9935 4.17561 15.0427 4.15942 15.0932 4.15011L15.2515 4.12091C15.4168 4.09044 15.5759 4.1299 15.7289 4.23929C15.7926 4.14688 15.8585 4.08014 15.9269 4.03906C15.9998 3.99714 16.0753 3.96898 16.1533 3.95459L16.291 3.9292C16.4562 3.89873 16.5963 3.92509 16.7113 4.00828C16.8309 4.09063 16.9068 4.21899 16.9389 4.39339L17.1916 5.76328C17.2026 5.82295 17.1783 5.85828 17.1186 5.86928Z" fill="#113150"/>
<path d="M18.7448 5.88737L18.7029 5.88652C18.6702 5.88587 18.6405 5.85493 18.6137 5.79372C18.4865 5.85184 18.3809 5.88007 18.2969 5.87838L18.045 5.87333C17.8863 5.87014 17.7637 5.81634 17.6771 5.71192C17.5906 5.60749 17.549 5.46663 17.5526 5.28933L17.5709 4.37951C17.5744 4.20222 17.6215 4.06313 17.7122 3.96227C17.803 3.8614 17.9276 3.81256 18.0863 3.81574L18.7861 3.82978C18.8421 3.8309 18.8695 3.85946 18.8684 3.91545L18.8307 5.79807C18.8294 5.85872 18.8008 5.88849 18.7448 5.88737ZM18.6727 4.24759C18.6731 4.22893 18.669 4.20084 18.6604 4.16333C18.6517 4.13048 18.6359 4.10449 18.613 4.08536C18.59 4.06623 18.553 4.05148 18.5018 4.04112L18.0819 4.0327C17.8766 4.02858 17.7716 4.14549 17.7668 4.38345L17.7487 5.28626C17.7438 5.52888 17.844 5.65225 18.0493 5.65637L18.2943 5.66128C18.5229 5.66587 18.6395 5.55385 18.6441 5.32523C18.6505 5.00796 18.6551 4.77701 18.658 4.63237C18.6656 4.48783 18.6699 4.38989 18.6709 4.33857L18.6727 4.24759Z" fill="#113150"/>
<path d="M20.5223 6.14864L20.4741 6.13962C20.4282 6.13102 20.4109 6.09691 20.4221 6.03728L20.6786 4.66812C20.7225 4.43419 20.6435 4.29831 20.4417 4.26049L20.194 4.21408C19.9784 4.17368 19.8495 4.26586 19.8074 4.49061L19.5483 5.87354C19.5371 5.93317 19.5063 5.95825 19.4558 5.9488L19.4077 5.93977C19.3618 5.93118 19.3444 5.89706 19.3556 5.83744L19.7024 3.98665C19.7067 3.96372 19.7148 3.94623 19.7265 3.93419C19.7437 3.91842 19.7638 3.91269 19.7867 3.91698L19.8349 3.92601C19.8486 3.92859 19.8588 3.93762 19.8654 3.9531C19.8775 3.96485 19.8915 3.99122 19.9076 4.03221C20.0242 3.99235 20.133 3.98188 20.2339 4.00079L20.4816 4.04721C20.633 4.07557 20.7451 4.1488 20.8179 4.26691C20.8907 4.38501 20.9108 4.53121 20.8782 4.70551L20.6216 6.07467C20.6104 6.1343 20.5773 6.15896 20.5223 6.14864Z" fill="#113150"/>
<path d="M23.6485 7.43281L23.2258 7.1714C23.071 7.07567 22.9801 6.95639 22.9533 6.81356C22.9288 6.66676 22.9718 6.50406 23.0823 6.32545L23.8923 5.01569C23.9954 4.84899 24.1193 4.7418 24.264 4.69412C24.4127 4.6489 24.5624 4.67292 24.7133 4.7662L25.136 5.02761C25.2868 5.12088 25.3732 5.24291 25.3952 5.39368C25.4211 5.5469 25.3825 5.70686 25.2795 5.87356L25.18 6.0343C25.1629 6.06209 25.1422 6.08222 25.118 6.0947C25.0938 6.10718 25.0678 6.10483 25.0401 6.08765L24.9984 6.06188C24.9468 6.02997 24.9418 5.98028 24.9836 5.9128L25.083 5.75206C25.2204 5.5298 25.1939 5.35975 25.0034 5.24194L24.5807 4.98052C24.3942 4.86516 24.2322 4.91861 24.0947 5.14087L23.2884 6.44468C23.1485 6.67091 23.1718 6.84171 23.3583 6.95708L23.781 7.21849C23.9715 7.33631 24.1367 7.2821 24.2767 7.05587L24.3761 6.89513C24.4129 6.83559 24.4571 6.82178 24.5087 6.85369L24.5504 6.87946C24.5742 6.89419 24.5859 6.91516 24.5855 6.94237C24.5891 6.97203 24.5848 6.99678 24.5725 7.01663L24.4694 7.18333C24.359 7.36193 24.2326 7.47309 24.0904 7.5168C23.9506 7.55654 23.8033 7.52854 23.6485 7.43281Z" fill="#113150"/>
<path d="M25.0896 8.47092L25.0526 8.43881C25.035 8.42352 25.027 8.40424 25.0286 8.38097C25.0338 8.36075 25.044 8.34183 25.0593 8.3242L26.7977 6.3201C26.8375 6.27427 26.875 6.26665 26.9102 6.29723L26.9472 6.32933C26.9895 6.36603 26.9908 6.40729 26.9511 6.45312L25.2127 8.45722C25.1729 8.50305 25.1319 8.50761 25.0896 8.47092Z" fill="#113150"/>
<path d="M26.4204 9.81268L26.3924 9.78143C26.3706 9.75713 26.3728 9.7143 26.3993 9.65293C26.3344 9.62962 26.2796 9.60356 26.2349 9.57473C26.1933 9.54936 26.1538 9.51585 26.1164 9.47419L25.9527 9.29193C25.8497 9.17737 25.8053 9.05107 25.8193 8.91303C25.8333 8.77498 25.9063 8.64671 26.0382 8.5282L27.0797 7.59263C27.1213 7.55521 27.1593 7.55559 27.1936 7.59378L27.231 7.63544C27.2466 7.6528 27.2522 7.67292 27.2476 7.69581C27.2466 7.71558 27.2374 7.73326 27.22 7.74886L26.1837 8.67975C26.0032 8.84192 25.98 8.99764 26.1141 9.14692L26.2778 9.32918C26.4275 9.49582 26.5874 9.50273 26.7575 9.34992L27.8094 8.405C27.8511 8.36757 27.8891 8.36796 27.9234 8.40614L27.9514 8.43739C27.967 8.45475 27.9726 8.47487 27.968 8.49776C27.967 8.51753 27.9578 8.53521 27.9404 8.5508L26.5396 9.80915C26.4945 9.84969 26.4548 9.85087 26.4204 9.81268Z" fill="#113150"/>
<path d="M27.194 10.9005L26.8133 10.3048C26.8007 10.2851 26.7985 10.2644 26.8067 10.2425C26.8174 10.2246 26.8326 10.2094 26.8523 10.1968L29.0877 8.76805C29.1388 8.73538 29.1769 8.7387 29.202 8.77803L29.2284 8.81931C29.2561 8.86257 29.2443 8.90053 29.1932 8.9332L28.5857 9.32149C28.6678 9.3632 28.726 9.39799 28.7604 9.42584C28.7973 9.45762 28.8296 9.49513 28.8573 9.53839L28.993 9.75072C29.0759 9.88048 29.0973 10.0136 29.0571 10.15C29.0169 10.2865 28.9202 10.4037 28.7668 10.5017L27.9647 11.0144C27.8035 11.1175 27.6545 11.1573 27.5177 11.1339C27.3848 11.1081 27.277 11.0303 27.194 10.9005ZM28.6516 10.3344C28.86 10.2012 28.9089 10.0481 28.7983 9.87513L28.6626 9.66279C28.5445 9.47798 28.3871 9.44841 28.1905 9.57407L27.0758 10.2866L27.3887 10.7761C27.4992 10.9491 27.6568 10.9703 27.8612 10.8396L28.6516 10.3344Z" fill="#113150"/>
<path d="M6.4347 9.34349L5.93538 10.1867L6.83886 10.7217L7.28825 9.9628C7.29776 9.94674 7.3153 9.93544 7.34088 9.92888C7.36481 9.91594 7.38883 9.9166 7.41292 9.93087L7.45508 9.95583C7.49122 9.97723 7.50937 10.0015 7.50953 10.0287C7.51206 10.0519 7.50858 10.0716 7.49907 10.0876L7.04968 10.8466L8.06761 11.4493C8.08769 11.4612 8.1042 11.4791 8.11714 11.5031C8.12607 11.5246 8.12221 11.5494 8.10557 11.5775L8.0806 11.6197C8.04969 11.6719 8.00613 11.6814 7.94991 11.6481L5.69119 10.3106C5.6671 10.2964 5.65059 10.2784 5.64166 10.2569C5.62871 10.2329 5.63056 10.2069 5.64721 10.1788L6.21786 9.2151C6.24877 9.1629 6.29233 9.15344 6.34855 9.18673L6.39674 9.21526C6.42484 9.2319 6.44098 9.25502 6.44516 9.28461C6.44769 9.3078 6.44421 9.32743 6.4347 9.34349Z" fill="white"/>
<path d="M7.86364 8.64131L7.78254 8.73774C7.72246 8.80916 7.70447 8.88855 7.72857 8.9759C7.74909 9.06024 7.804 9.13996 7.89328 9.21506L8.93253 10.0892C8.97896 10.1282 8.98715 10.1656 8.95711 10.2013L8.93008 10.2335C8.90605 10.2621 8.87082 10.2568 8.82439 10.2178L7.38337 9.00568C7.34051 8.96964 7.3311 8.93733 7.35513 8.90876L7.38217 8.87662C7.39418 8.86233 7.40677 8.85462 7.41992 8.85349C7.43307 8.85235 7.46351 8.85966 7.51124 8.87541C7.52529 8.80796 7.53897 8.75544 7.55229 8.71786C7.56504 8.6737 7.58794 8.63198 7.62098 8.5927L7.69758 8.50163C7.70959 8.48734 7.72725 8.48085 7.75055 8.48215C7.77027 8.48045 7.78906 8.48711 7.80692 8.50213L7.84442 8.53367C7.88728 8.56972 7.89368 8.6056 7.86364 8.64131Z" fill="white"/>
<path d="M10.3986 7.44053L9.60727 8.11996L9.81702 8.36427C9.9751 8.54838 10.132 8.57356 10.2878 8.43981L10.8242 7.97925C10.8667 7.94278 10.9062 7.94578 10.9427 7.98827L10.9746 8.02545C10.9929 8.04669 10.9995 8.0687 10.9944 8.09149C10.9894 8.11427 10.9798 8.13174 10.9656 8.1439L10.4292 8.60445C10.3088 8.70781 10.1815 8.74942 10.0474 8.72928C9.91323 8.70914 9.78839 8.6318 9.67287 8.49726L9.08009 7.80682C8.96457 7.67227 8.90701 7.53717 8.9074 7.40152C8.9078 7.26586 8.96819 7.14636 9.08857 7.043L9.31694 6.84692C9.44087 6.74053 9.56991 6.6974 9.70406 6.71753C9.83821 6.73767 9.96305 6.81501 10.0786 6.94956L10.3932 7.31602C10.4358 7.36559 10.4376 7.40709 10.3986 7.44053ZM9.92985 7.07723C9.77482 6.89666 9.61763 6.87477 9.4583 7.01157L9.22993 7.20764C9.07414 7.3414 9.07376 7.49857 9.2288 7.67914L9.46591 7.95532L10.167 7.35341L9.92985 7.07723Z" fill="white"/>
<path d="M11.9857 6.38442L11.0947 6.92662L11.2621 7.20169C11.3882 7.40899 11.539 7.45927 11.7144 7.35253L12.3184 6.985C12.3662 6.95589 12.4047 6.96526 12.4338 7.01309L12.4593 7.05495C12.4738 7.07887 12.4768 7.10166 12.4681 7.12333C12.4594 7.14499 12.4471 7.16067 12.4312 7.17038L11.8272 7.53791C11.6917 7.62039 11.5594 7.64082 11.4302 7.59921C11.3011 7.5576 11.1905 7.46105 11.0983 7.30956L10.6252 6.53218C10.533 6.38069 10.4981 6.23805 10.5205 6.10425C10.5429 5.97046 10.6218 5.86232 10.7574 5.77983L11.0145 5.62336C11.1541 5.53845 11.2884 5.51681 11.4175 5.55842C11.5466 5.60003 11.6573 5.69658 11.7494 5.84807L12.0005 6.26068C12.0345 6.31649 12.0295 6.35774 11.9857 6.38442ZM11.582 5.94996C11.4583 5.74664 11.3067 5.69957 11.1273 5.80874L10.8702 5.96521C10.6948 6.07195 10.6689 6.22698 10.7927 6.43029L10.9819 6.74124L11.7712 6.26091L11.582 5.94996Z" fill="white"/>
<path d="M14.0362 6.44718L13.9973 6.46286C13.9756 6.47156 13.9587 6.47333 13.9466 6.46815C13.9344 6.46298 13.911 6.44222 13.8763 6.40589C13.8296 6.46491 13.7872 6.50962 13.7491 6.54003C13.7111 6.57043 13.6682 6.59521 13.6206 6.61437L13.3868 6.70841C13.2396 6.76762 13.1066 6.76831 12.9877 6.71048C12.8689 6.65265 12.7729 6.53281 12.6998 6.35097L12.3576 5.50022C12.2862 5.32271 12.2733 5.17195 12.319 5.04794C12.3629 4.9196 12.4585 4.82583 12.6057 4.76661L12.8395 4.67257C12.8871 4.65342 12.9352 4.64162 12.9837 4.6372C13.0323 4.63277 13.102 4.6374 13.193 4.65109L12.9083 3.94321C12.8857 3.88693 12.896 3.85008 12.9393 3.83266L12.9783 3.81699C13.0302 3.79609 13.0675 3.81378 13.0901 3.87007L14.0802 6.33141C14.1028 6.38769 14.0882 6.42628 14.0362 6.44718ZM13.3655 5.07972C13.2784 4.86324 13.1288 4.79767 12.9166 4.883L12.6893 4.97443C12.4988 5.05106 12.4488 5.20194 12.5394 5.42708L12.879 6.27134C12.9696 6.49647 13.1101 6.57073 13.3006 6.4941L13.5279 6.40267C13.74 6.31733 13.8043 6.17076 13.7207 5.96294L13.3655 5.07972Z" fill="white"/>
<path d="M16.7344 5.81575L16.6862 5.82464C16.6587 5.82971 16.6363 5.82434 16.6192 5.80853C16.6066 5.79186 16.5982 5.77206 16.594 5.74911L16.3413 4.37921C16.2982 4.14516 16.1664 4.04845 15.9461 4.08907L15.8085 4.11446C15.6937 4.13562 15.6102 4.18425 15.5578 4.26035C15.5045 4.33186 15.4881 4.42269 15.5084 4.53283L15.761 5.90273C15.7652 5.92567 15.7622 5.9476 15.7518 5.96849C15.7414 5.98939 15.7247 6.00195 15.7018 6.00618L15.6467 6.01634C15.5962 6.02565 15.5655 6.00048 15.5545 5.94082L15.3018 4.57092C15.2587 4.33686 15.127 4.24015 14.9067 4.28078L14.7552 4.30871C14.5258 4.35103 14.4318 4.48462 14.4732 4.7095L14.7284 6.09316C14.7394 6.15282 14.7151 6.18816 14.6554 6.19916L14.6073 6.20805C14.5797 6.21312 14.5574 6.20775 14.5402 6.19194C14.5277 6.17527 14.5193 6.15547 14.515 6.13252L14.1735 4.28075C14.1693 4.2578 14.1705 4.2386 14.1771 4.22314C14.1875 4.20224 14.2065 4.18926 14.234 4.18418L14.2822 4.17529C14.3005 4.1719 14.3174 4.17353 14.3329 4.18017C14.353 4.18596 14.3778 4.2051 14.4076 4.23758C14.4613 4.19446 14.5126 4.16365 14.5613 4.14516C14.6093 4.12208 14.6585 4.10589 14.709 4.09658L14.8673 4.06738C15.0325 4.03691 15.1917 4.07637 15.3447 4.18576C15.4083 4.09335 15.4743 4.02661 15.5427 3.98553C15.6156 3.94361 15.6911 3.91545 15.7691 3.90106L15.9068 3.87567C16.072 3.8452 16.2121 3.87156 16.3271 3.95475C16.4467 4.0371 16.5226 4.16546 16.5547 4.33986L16.8074 5.70975C16.8184 5.76941 16.794 5.80475 16.7344 5.81575Z" fill="white"/>
<path d="M18.3606 5.83383L18.3186 5.83299C18.286 5.83234 18.2563 5.8014 18.2295 5.74019C18.1023 5.79831 17.9967 5.82653 17.9127 5.82485L17.6608 5.81979C17.5021 5.81661 17.3795 5.76281 17.2929 5.65838C17.2063 5.55396 17.1648 5.4131 17.1684 5.2358L17.1866 4.32598C17.1902 4.14869 17.2373 4.0096 17.328 3.90874C17.4187 3.80787 17.5434 3.75903 17.702 3.76221L18.4019 3.77625C18.4579 3.77737 18.4853 3.80593 18.4842 3.86192L18.4464 5.74454C18.4452 5.80519 18.4166 5.83496 18.3606 5.83383ZM18.2885 4.19406C18.2889 4.1754 18.2848 4.14731 18.2762 4.10979C18.2675 4.07695 18.2517 4.05096 18.2287 4.03183C18.2058 4.0127 18.1687 3.99795 18.1176 3.98759L17.6977 3.97916C17.4924 3.97505 17.3874 4.09196 17.3826 4.32991L17.3645 5.23273C17.3596 5.47535 17.4598 5.59872 17.6651 5.60284L17.9101 5.60775C18.1387 5.61234 18.2553 5.50032 18.2599 5.2717C18.2662 4.95443 18.2709 4.72348 18.2738 4.57884C18.2813 4.4343 18.2856 4.33636 18.2867 4.28504L18.2885 4.19406Z" fill="white"/>
<path d="M20.138 6.09511L20.0899 6.08609C20.044 6.07749 20.0267 6.04338 20.0378 5.98375L20.2944 4.61458C20.3382 4.38066 20.2593 4.24478 20.0574 4.20696L19.8097 4.16055C19.5942 4.12015 19.4653 4.21232 19.4232 4.43708L19.164 5.82001C19.1529 5.87963 19.1221 5.90472 19.0716 5.89527L19.0234 5.88624C18.9776 5.87765 18.9602 5.84353 18.9714 5.7839L19.3182 3.93312C19.3225 3.91019 19.3305 3.8927 19.3423 3.88066C19.3595 3.86489 19.3796 3.85915 19.4025 3.86345L19.4507 3.87248C19.4644 3.87506 19.4746 3.88408 19.4812 3.89956C19.4932 3.91132 19.5073 3.93769 19.5233 3.97868C19.64 3.93882 19.7488 3.92835 19.8497 3.94726L20.0974 3.99367C20.2488 4.02204 20.3609 4.09527 20.4337 4.21337C20.5065 4.33147 20.5266 4.47767 20.4939 4.65197L20.2374 6.02114C20.2262 6.08077 20.1931 6.10543 20.138 6.09511Z" fill="white"/>
<path d="M23.2643 7.37928L22.8416 7.11787C22.6868 7.02214 22.5959 6.90286 22.569 6.76003C22.5446 6.61323 22.5876 6.45052 22.6981 6.27192L23.5081 4.96216C23.6112 4.79546 23.7351 4.68827 23.8798 4.64059C24.0285 4.59537 24.1782 4.61939 24.329 4.71267L24.7517 4.97408C24.9025 5.06735 24.989 5.18937 25.0109 5.34015C25.0369 5.49337 24.9983 5.65333 24.8952 5.82003L24.7958 5.98077C24.7786 6.00856 24.758 6.02869 24.7338 6.04117C24.7096 6.05365 24.6836 6.0513 24.6558 6.03412L24.6142 6.00835C24.5626 5.97644 24.5576 5.92674 24.5994 5.85927L24.6988 5.69853C24.8362 5.47626 24.8097 5.30622 24.6192 5.1884L24.1965 4.92699C24.0099 4.81163 23.8479 4.86508 23.7105 5.08734L22.9042 6.39115C22.7642 6.61738 22.7876 6.78818 22.9741 6.90355L23.3968 7.16496C23.5873 7.28278 23.7525 7.22857 23.8924 7.00234L23.9918 6.8416C24.0287 6.78206 24.0729 6.76825 24.1245 6.80016L24.1661 6.82593C24.19 6.84066 24.2017 6.86163 24.2013 6.88883C24.2049 6.9185 24.2006 6.94325 24.1883 6.9631L24.0852 7.12979C23.9748 7.3084 23.8484 7.41956 23.7061 7.46327C23.5663 7.50301 23.419 7.47501 23.2643 7.37928Z" fill="white"/>
<path d="M24.7054 8.41739L24.6684 8.38528C24.6507 8.36999 24.6427 8.35071 24.6444 8.32744C24.6496 8.30722 24.6598 8.2883 24.6751 8.27067L26.4135 6.26657C26.4532 6.22074 26.4907 6.21312 26.526 6.2437L26.563 6.2758C26.6053 6.3125 26.6066 6.35376 26.5668 6.39959L24.8285 8.40369C24.7887 8.44952 24.7477 8.45408 24.7054 8.41739Z" fill="white"/>
<path d="M26.0362 9.75915L26.0082 9.7279C25.9863 9.7036 25.9886 9.66077 26.015 9.59939C25.9502 9.57609 25.8954 9.55003 25.8507 9.52119C25.8091 9.49583 25.7696 9.46232 25.7322 9.42066L25.5684 9.2384C25.4655 9.12384 25.4211 8.99754 25.4351 8.85949C25.4491 8.72145 25.522 8.59318 25.654 8.47467L26.6955 7.5391C26.7371 7.50168 26.7751 7.50206 26.8094 7.54025L26.8468 7.58191C26.8624 7.59927 26.868 7.61939 26.8634 7.64228C26.8624 7.66205 26.8532 7.67973 26.8358 7.69532L25.7995 8.62622C25.619 8.78838 25.5958 8.94411 25.7299 9.09339L25.8936 9.27565C26.0433 9.44229 26.2032 9.4492 26.3733 9.29639L27.4252 8.35146C27.4669 8.31404 27.5048 8.31442 27.5392 8.35261L27.5672 8.38386C27.5828 8.40122 27.5883 8.42134 27.5838 8.44423C27.5828 8.464 27.5735 8.48168 27.5562 8.49727L26.1554 9.75562C26.1102 9.79616 26.0705 9.79734 26.0362 9.75915Z" fill="white"/>
<path d="M26.8098 10.847L26.4291 10.2513C26.4165 10.2316 26.4143 10.2108 26.4225 10.189C26.4332 10.1711 26.4484 10.1558 26.468 10.1433L28.7034 8.71452C28.7546 8.68185 28.7927 8.68517 28.8178 8.72449L28.8442 8.76578C28.8719 8.80903 28.8601 8.847 28.809 8.87967L28.2015 9.26796C28.2835 9.30967 28.3418 9.34445 28.3762 9.3723C28.4131 9.40409 28.4454 9.4416 28.473 9.48486L28.6087 9.69719C28.6917 9.82695 28.7131 9.96005 28.6729 10.0965C28.6327 10.2329 28.536 10.3502 28.3826 10.4482L27.5804 10.9609C27.4192 11.0639 27.2702 11.1038 27.1335 11.0804C27.0006 11.0546 26.8927 10.9767 26.8098 10.847ZM28.2674 10.2809C28.4758 10.1477 28.5247 9.99461 28.4141 9.82159L28.2784 9.60926C28.1603 9.42445 28.0029 9.39487 27.8063 9.52053L26.6915 10.233L27.0044 10.7226C27.115 10.8956 27.2726 10.9168 27.477 10.7861L28.2674 10.2809Z" fill="white"/>
<path d="M29.1811 26.7419L29.6804 25.8986L28.7769 25.3636L28.3276 26.1226C28.318 26.1386 28.3005 26.1499 28.2749 26.1565C28.251 26.1694 28.227 26.1688 28.2029 26.1545L28.1607 26.1295C28.1246 26.1081 28.1064 26.0838 28.1063 26.0566C28.1037 26.0334 28.1072 26.0138 28.1167 25.9977L28.5661 25.2388L27.5482 24.6361C27.5281 24.6242 27.5116 24.6063 27.4987 24.5823C27.4897 24.5608 27.4936 24.5359 27.5102 24.5078L27.5352 24.4657C27.5661 24.4135 27.6097 24.404 27.6659 24.4373L29.9246 25.7748C29.9487 25.789 29.9652 25.8069 29.9741 25.8285C29.9871 25.8524 29.9852 25.8784 29.9686 25.9066L29.3979 26.8703C29.367 26.9225 29.3235 26.9319 29.2673 26.8986L29.2191 26.8701C29.191 26.8535 29.1748 26.8304 29.1706 26.8008C29.1681 26.7776 29.1716 26.7579 29.1811 26.7419Z" fill="#113150"/>
<path d="M27.7522 27.4441L27.8333 27.3476C27.8933 27.2762 27.9113 27.1968 27.8872 27.1095C27.8667 27.0251 27.8118 26.9454 27.7225 26.8703L26.6833 25.9962C26.6368 25.9571 26.6287 25.9197 26.6587 25.884L26.6857 25.8519C26.7098 25.8233 26.745 25.8286 26.7914 25.8676L28.2324 27.0797C28.2753 27.1157 28.2847 27.148 28.2607 27.1766L28.2336 27.2088C28.2216 27.223 28.209 27.2307 28.1959 27.2319C28.1827 27.233 28.1523 27.2257 28.1046 27.21C28.0905 27.2774 28.0768 27.3299 28.0635 27.3675C28.0508 27.4117 28.0279 27.4534 27.9948 27.4927L27.9182 27.5837C27.9062 27.598 27.8886 27.6045 27.8653 27.6032C27.8455 27.6049 27.8267 27.5983 27.8089 27.5832L27.7714 27.5517C27.7285 27.5157 27.7221 27.4798 27.7522 27.4441Z" fill="#113150"/>
<path d="M25.2172 28.6448L26.0085 27.9654L25.7988 27.7211C25.6407 27.537 25.4838 27.5118 25.328 27.6456L24.7916 28.1061C24.7491 28.1426 24.7096 28.1396 24.6731 28.0971L24.6412 28.0599C24.623 28.0387 24.6164 28.0167 24.6214 27.9939C24.6264 27.9711 24.636 27.9536 24.6502 27.9415L25.1866 27.4809C25.307 27.3776 25.4343 27.336 25.5684 27.3561C25.7026 27.3762 25.8274 27.4536 25.9429 27.5881L26.5357 28.2786C26.6512 28.4131 26.7088 28.5482 26.7084 28.6839C26.708 28.8195 26.6476 28.939 26.5272 29.0424L26.2989 29.2384C26.1749 29.3448 26.0459 29.388 25.9117 29.3678C25.7776 29.3477 25.6528 29.2704 25.5372 29.1358L25.2226 28.7694C25.18 28.7198 25.1782 28.6783 25.2172 28.6448ZM25.686 29.0081C25.841 29.1887 25.9982 29.2106 26.1575 29.0738L26.3859 28.8777C26.5417 28.744 26.542 28.5868 26.387 28.4062L26.1499 28.1301L25.4488 28.732L25.686 29.0081Z" fill="#113150"/>
<path d="M23.6301 29.7009L24.5211 29.1588L24.3537 28.8837C24.2276 28.6764 24.0768 28.6261 23.9014 28.7328L23.2974 29.1004C23.2496 29.1295 23.2111 29.1201 23.182 29.0723L23.1565 29.0304C23.142 29.0065 23.139 28.9837 23.1477 28.962C23.1564 28.9404 23.1687 28.9247 23.1846 28.915L23.7886 28.5475C23.9241 28.465 24.0565 28.4445 24.1856 28.4862C24.3147 28.5278 24.4253 28.6243 24.5175 28.7758L24.9906 29.5532C25.0828 29.7047 25.1177 29.8473 25.0953 29.9811C25.0729 30.1149 24.994 30.2231 24.8584 30.3055L24.6013 30.462C24.4618 30.5469 24.3274 30.5686 24.1983 30.527C24.0692 30.4853 23.9586 30.3888 23.8664 30.2373L23.6153 29.8247C23.5813 29.7689 23.5863 29.7276 23.6301 29.7009ZM24.0338 30.1354C24.1575 30.3387 24.3091 30.3858 24.4885 30.2766L24.7456 30.1202C24.921 30.0134 24.9469 29.8584 24.8231 29.6551L24.6339 29.3441L23.8446 29.8245L24.0338 30.1354Z" fill="#113150"/>
<path d="M21.5796 29.6382L21.6185 29.6225C21.6402 29.6138 21.6571 29.612 21.6692 29.6172C21.6814 29.6224 21.7048 29.6431 21.7395 29.6795C21.7862 29.6205 21.8286 29.5757 21.8667 29.5453C21.9047 29.5149 21.9476 29.4902 21.9952 29.471L22.229 29.377C22.3762 29.3177 22.5092 29.3171 22.6281 29.3749C22.7469 29.4327 22.8429 29.5526 22.916 29.7344L23.2582 30.5851C23.3296 30.7627 23.3425 30.9134 23.2968 31.0374C23.2529 31.1658 23.1573 31.2595 23.0101 31.3188L22.7763 31.4128C22.7287 31.432 22.6806 31.4437 22.6321 31.4482C22.5835 31.4526 22.5138 31.448 22.4228 31.4343L22.7075 32.1422C22.7301 32.1984 22.7198 32.2353 22.6765 32.2527L22.6376 32.2684C22.5856 32.2893 22.5483 32.2716 22.5257 32.2153L21.5356 29.754C21.513 29.6977 21.5276 29.6591 21.5796 29.6382ZM22.2504 31.0057C22.3374 31.2221 22.487 31.2877 22.6992 31.2024L22.9265 31.1109C23.117 31.0343 23.167 30.8834 23.0764 30.6583L22.7368 29.814C22.6462 29.5889 22.5057 29.5146 22.3152 29.5913L22.0879 29.6827C21.8758 29.768 21.8115 29.9146 21.8951 30.1224L22.2504 31.0057Z" fill="#113150"/>
<path d="M18.8814 30.2696L18.9296 30.2607C18.9571 30.2557 18.9795 30.261 18.9966 30.2768C19.0092 30.2935 19.0176 30.3133 19.0218 30.3363L19.2745 31.7062C19.3176 31.9402 19.4494 32.0369 19.6697 31.9963L19.8073 31.9709C19.9221 31.9497 20.0056 31.9011 20.058 31.825C20.1113 31.7535 20.1278 31.6627 20.1074 31.5525L19.8548 30.1826C19.8506 30.1597 19.8536 30.1378 19.864 30.1169C19.8744 30.096 19.8911 30.0834 19.914 30.0792L19.9691 30.069C20.0196 30.0597 20.0503 30.0849 20.0613 30.1446L20.314 31.5145C20.3571 31.7485 20.4888 31.8452 20.7091 31.8046L20.8606 31.7767C21.09 31.7343 21.184 31.6007 21.1426 31.3759L20.8874 29.9922C20.8764 29.9325 20.9007 29.8972 20.9604 29.8862L21.0086 29.8773C21.0361 29.8722 21.0584 29.8776 21.0756 29.8934C21.0881 29.9101 21.0965 29.9299 21.1008 29.9528L21.4423 31.8046C21.4465 31.8276 21.4453 31.8468 21.4387 31.8622C21.4283 31.8831 21.4093 31.8961 21.3818 31.9012L21.3336 31.9101C21.3153 31.9135 21.2984 31.9118 21.2829 31.9052C21.2628 31.8994 21.238 31.8803 21.2082 31.8478C21.1545 31.8909 21.1032 31.9217 21.0545 31.9402C21.0065 31.9633 20.9573 31.9795 20.9068 31.9888L20.7485 32.018C20.5833 32.0485 20.4241 32.009 20.2711 31.8996C20.2075 31.992 20.1415 32.0588 20.0731 32.0998C20.0002 32.1418 19.9247 32.1699 19.8467 32.1843L19.709 32.2097C19.5438 32.2402 19.4037 32.2138 19.2887 32.1306C19.1691 32.0483 19.0932 31.9199 19.0611 31.7455L18.8084 30.3756C18.7974 30.316 18.8218 30.2806 18.8814 30.2696Z" fill="#113150"/>
<path d="M17.2552 30.2515L17.2972 30.2524C17.3298 30.253 17.3596 30.284 17.3863 30.3452C17.5135 30.2871 17.6191 30.2588 17.7031 30.2605L17.955 30.2656C18.1137 30.2688 18.2363 30.3226 18.3229 30.427C18.4095 30.5314 18.451 30.6723 18.4474 30.8496L18.4292 31.7594C18.4256 31.9367 18.3785 32.0758 18.2878 32.1766C18.1971 32.2775 18.0724 32.3263 17.9138 32.3232L17.2139 32.3091C17.1579 32.308 17.1305 32.2794 17.1316 32.2235L17.1694 30.3408C17.1706 30.2802 17.1992 30.2504 17.2552 30.2515ZM17.3273 31.8913C17.3269 31.91 17.331 31.9381 17.3396 31.9756C17.3483 32.0084 17.3641 32.0344 17.3871 32.0535C17.41 32.0727 17.4471 32.0874 17.4982 32.0978L17.9181 32.1062C18.1234 32.1103 18.2284 31.9934 18.2332 31.7555L18.2513 30.8526C18.2562 30.61 18.156 30.4866 17.9507 30.4825L17.7057 30.4776C17.4771 30.473 17.3605 30.585 17.3559 30.8137C17.3496 31.1309 17.3449 31.3619 17.342 31.5065C17.3345 31.6511 17.3302 31.749 17.3291 31.8003L17.3273 31.8913Z" fill="#113150"/>
<path d="M15.4778 29.9903L15.5259 29.9993C15.5718 30.0079 15.5891 30.042 15.578 30.1016L15.3214 31.4708C15.2776 31.7047 15.3566 31.8406 15.5584 31.8784L15.8061 31.9248C16.0216 31.9652 16.1505 31.873 16.1926 31.6483L16.4518 30.2654C16.4629 30.2057 16.4938 30.1806 16.5442 30.1901L16.5924 30.1991C16.6382 30.2077 16.6556 30.2418 16.6444 30.3015L16.2976 32.1522C16.2933 32.1752 16.2853 32.1927 16.2735 32.2047C16.2563 32.2205 16.2362 32.2262 16.2133 32.2219L16.1651 32.2129C16.1514 32.2103 16.1412 32.2013 16.1346 32.1858C16.1226 32.1741 16.1085 32.1477 16.0925 32.1067C15.9758 32.1465 15.867 32.157 15.7661 32.1381L15.5184 32.0917C15.367 32.0633 15.2549 31.9901 15.1821 31.872C15.1093 31.7539 15.0892 31.6077 15.1219 31.4334L15.3784 30.0642C15.3896 30.0046 15.4227 29.9799 15.4778 29.9903Z" fill="#113150"/>
<path d="M12.3515 28.7061L12.7742 28.9675C12.929 29.0632 13.0199 29.1825 13.0468 29.3253C13.0712 29.4721 13.0282 29.6348 12.9177 29.8134L12.1077 31.1232C12.0046 31.2899 11.8807 31.3971 11.736 31.4448C11.5873 31.49 11.4376 31.466 11.2868 31.3727L10.8641 31.1113C10.7133 31.018 10.6269 30.896 10.6049 30.7452C10.5789 30.592 10.6175 30.432 10.7206 30.2653L10.82 30.1046C10.8372 30.0768 10.8578 30.0567 10.882 30.0442C10.9062 30.0317 10.9322 30.0341 10.96 30.0512L11.0016 30.077C11.0532 30.1089 11.0582 30.1586 11.0164 30.2261L10.917 30.3868C10.7796 30.6091 10.8061 30.7791 10.9966 30.897L11.4193 31.1584C11.6059 31.2737 11.7679 31.2203 11.9053 30.998L12.7116 29.6942C12.8516 29.468 12.8282 29.2972 12.6417 29.1818L12.219 28.9204C12.0285 28.8026 11.8633 28.8568 11.7234 29.083L11.624 29.2438C11.5871 29.3033 11.5429 29.3171 11.4913 29.2852L11.4497 29.2594C11.4258 29.2447 11.4141 29.2237 11.4145 29.1965C11.4109 29.1669 11.4152 29.1421 11.4275 29.1223L11.5306 28.9556C11.641 28.777 11.7674 28.6658 11.9097 28.6221C12.0495 28.5824 12.1968 28.6104 12.3515 28.7061Z" fill="#113150"/>
<path d="M10.9104 27.668L10.9474 27.7001C10.9651 27.7154 10.9731 27.7347 10.9714 27.7579C10.9662 27.7781 10.956 27.7971 10.9407 27.8147L9.20231 29.8188C9.16256 29.8646 9.12505 29.8723 9.0898 29.8417L9.05279 29.8096C9.01048 29.7729 9.00921 29.7316 9.04896 29.6858L10.7873 27.6817C10.8271 27.6359 10.8681 27.6313 10.9104 27.668Z" fill="#113150"/>
<path d="M9.57958 26.3262L9.60765 26.3575C9.62948 26.3818 9.62718 26.4246 9.60076 26.486C9.66561 26.5093 9.72039 26.5353 9.76511 26.5642C9.80671 26.5895 9.84622 26.623 9.88364 26.6647L10.0474 26.847C10.1503 26.9615 10.1947 27.0878 10.1807 27.2259C10.1667 27.3639 10.0938 27.4922 9.96184 27.6107L8.92035 28.5463C8.87869 28.5837 8.8407 28.5833 8.8064 28.5451L8.76898 28.5035C8.75338 28.4861 8.74785 28.466 8.75238 28.4431C8.75344 28.4233 8.76265 28.4056 8.78001 28.39L9.81629 27.4591C9.99682 27.297 10.02 27.1413 9.88593 26.992L9.72221 26.8097C9.57252 26.6431 9.41262 26.6362 9.24251 26.789L8.1906 27.7339C8.14894 27.7713 8.11096 27.7709 8.07665 27.7328L8.04859 27.7015C8.03299 27.6842 8.02746 27.664 8.03199 27.6411C8.03305 27.6214 8.04226 27.6037 8.05962 27.5881L9.46043 26.3298C9.50556 26.2892 9.54528 26.288 9.57958 26.3262Z" fill="#113150"/>
<path d="M8.806 25.2384L9.18675 25.8341C9.19932 25.8538 9.20151 25.8745 9.19332 25.8964C9.18261 25.9143 9.16743 25.9295 9.14777 25.9421L6.91236 27.3708C6.86124 27.4035 6.82312 27.4002 6.79798 27.3609L6.7716 27.3196C6.74395 27.2763 6.75569 27.2384 6.8068 27.2057L7.41432 26.8174C7.33227 26.7757 7.27404 26.7409 7.23963 26.7131C7.2027 26.6813 7.17041 26.6438 7.14277 26.6005L7.00705 26.3882C6.92412 26.2584 6.90274 26.1253 6.94291 25.9889C6.98309 25.8524 7.07985 25.7352 7.2332 25.6372L8.03536 25.1245C8.19658 25.0214 8.34557 24.9816 8.48234 25.0049C8.61518 25.0308 8.72307 25.1086 8.806 25.2384ZM7.34843 25.8045C7.14002 25.9377 7.09111 26.0908 7.20169 26.2638L7.33741 26.4761C7.45553 26.6609 7.61289 26.6905 7.8095 26.5648L8.92425 25.8523L8.61136 25.3628C8.50078 25.1898 8.34326 25.1686 8.13878 25.2993L7.34843 25.8045Z" fill="#113150"/>
<path d="M29.5653 26.7954L30.0646 25.9521L29.1611 25.4172L28.7118 26.1761C28.7022 26.1922 28.6847 26.2035 28.6591 26.21C28.6352 26.223 28.6112 26.2223 28.5871 26.208L28.5449 26.1831C28.5088 26.1617 28.4906 26.1374 28.4905 26.1101C28.4879 26.087 28.4914 26.0673 28.5009 26.0513L28.9503 25.2923L27.9324 24.6896C27.9123 24.6777 27.8958 24.6598 27.8829 24.6358C27.8739 24.6143 27.8778 24.5895 27.8944 24.5613L27.9194 24.5192C27.9503 24.467 27.9939 24.4575 28.0501 24.4908L30.3088 25.8283C30.3329 25.8425 30.3494 25.8605 30.3583 25.882C30.3713 25.9059 30.3694 25.932 30.3528 25.9601L29.7821 26.9238C29.7512 26.976 29.7077 26.9855 29.6515 26.9522L29.6033 26.9236C29.5752 26.907 29.559 26.8839 29.5548 26.8543C29.5523 26.8311 29.5558 26.8115 29.5653 26.7954Z" fill="white"/>
<path d="M28.1364 27.4976L28.2175 27.4012C28.2775 27.3297 28.2955 27.2503 28.2714 27.163C28.2509 27.0787 28.196 26.9989 28.1067 26.9238L27.0675 26.0497C27.021 26.0106 27.0129 25.9733 27.0429 25.9376L27.0699 25.9054C27.094 25.8768 27.1292 25.8821 27.1756 25.9211L28.6166 27.1332C28.6595 27.1693 28.6689 27.2016 28.6449 27.2301L28.6178 27.2623C28.6058 27.2766 28.5932 27.2843 28.5801 27.2854C28.5669 27.2865 28.5365 27.2792 28.4888 27.2635C28.4747 27.3309 28.461 27.3835 28.4477 27.421C28.435 27.4652 28.4121 27.5069 28.379 27.5462L28.3024 27.6373C28.2904 27.6516 28.2728 27.658 28.2495 27.6567C28.2297 27.6584 28.2109 27.6518 28.1931 27.6368L28.1556 27.6052C28.1127 27.5692 28.1063 27.5333 28.1364 27.4976Z" fill="white"/>
<path d="M25.6014 28.6984L26.3927 28.0189L26.183 27.7746C26.0249 27.5905 25.868 27.5653 25.7122 27.6991L25.1758 28.1596C25.1333 28.1961 25.0938 28.1931 25.0573 28.1506L25.0254 28.1134C25.0072 28.0922 25.0006 28.0702 25.0056 28.0474C25.0106 28.0246 25.0202 28.0072 25.0344 27.995L25.5708 27.5344C25.6912 27.4311 25.8185 27.3895 25.9526 27.4096C26.0868 27.4298 26.2116 27.5071 26.3271 27.6416L26.9199 28.3321C27.0354 28.4666 27.093 28.6017 27.0926 28.7374C27.0922 28.873 27.0318 28.9925 26.9114 29.0959L26.6831 29.292C26.5591 29.3984 26.4301 29.4415 26.2959 29.4214C26.1618 29.4012 26.037 29.3239 25.9214 29.1893L25.6068 28.8229C25.5642 28.7733 25.5624 28.7318 25.6014 28.6984ZM26.0702 29.0617C26.2252 29.2422 26.3824 29.2641 26.5417 29.1273L26.7701 28.9313C26.9259 28.7975 26.9262 28.6403 26.7712 28.4598L26.5341 28.1836L25.833 28.7855L26.0702 29.0617Z" fill="white"/>
<path d="M24.0143 29.7545L24.9053 29.2123L24.7379 28.9372C24.6118 28.7299 24.461 28.6796 24.2856 28.7864L23.6816 29.1539C23.6338 29.183 23.5953 29.1736 23.5662 29.1258L23.5407 29.0839C23.5262 29.06 23.5232 29.0372 23.5319 29.0156C23.5406 28.9939 23.5529 28.9782 23.5688 28.9685L24.1728 28.601C24.3083 28.5185 24.4407 28.4981 24.5698 28.5397C24.6989 28.5813 24.8095 28.6778 24.9017 28.8293L25.3748 29.6067C25.467 29.7582 25.5019 29.9008 25.4795 30.0346C25.4571 30.1684 25.3782 30.2766 25.2426 30.3591L24.9855 30.5155C24.846 30.6004 24.7116 30.6221 24.5825 30.5805C24.4534 30.5389 24.3428 30.4423 24.2506 30.2908L23.9995 29.8782C23.9655 29.8224 23.9705 29.7812 24.0143 29.7545ZM24.418 30.1889C24.5417 30.3923 24.6933 30.4393 24.8727 30.3302L25.1298 30.1737C25.3052 30.0669 25.3311 29.9119 25.2073 29.7086L25.0181 29.3976L24.2288 29.878L24.418 30.1889Z" fill="white"/>
<path d="M21.9638 29.6917L22.0027 29.676C22.0244 29.6673 22.0413 29.6656 22.0534 29.6707C22.0656 29.6759 22.089 29.6967 22.1237 29.733C22.1704 29.674 22.2128 29.6293 22.2509 29.5989C22.2889 29.5685 22.3318 29.5437 22.3794 29.5245L22.6132 29.4305C22.7604 29.3713 22.8934 29.3706 23.0123 29.4284C23.1311 29.4862 23.2271 29.6061 23.3002 29.7879L23.6424 30.6387C23.7138 30.8162 23.7267 30.9669 23.681 31.091C23.6371 31.2193 23.5415 31.3131 23.3943 31.3723L23.1605 31.4663C23.1129 31.4855 23.0648 31.4973 23.0163 31.5017C22.9678 31.5061 22.898 31.5015 22.807 31.4878L23.0917 32.1957C23.1143 32.252 23.104 32.2888 23.0607 32.3062L23.0218 32.3219C22.9698 32.3428 22.9325 32.3251 22.9099 32.2688L21.9198 29.8075C21.8972 29.7512 21.9118 29.7126 21.9638 29.6917ZM22.6346 31.0592C22.7216 31.2757 22.8712 31.3412 23.0834 31.2559L23.3107 31.1645C23.5012 31.0878 23.5512 30.937 23.4606 30.7118L23.121 29.8676C23.0304 29.6424 22.8899 29.5682 22.6994 29.6448L22.4721 29.7362C22.26 29.8216 22.1957 29.9681 22.2793 30.176L22.6346 31.0592Z" fill="white"/>
<path d="M19.2656 30.3231L19.3138 30.3143C19.3413 30.3092 19.3637 30.3146 19.3808 30.3304C19.3934 30.347 19.4018 30.3668 19.406 30.3898L19.6587 31.7597C19.7019 31.9937 19.8336 32.0904 20.0539 32.0498L20.1915 32.0244C20.3063 32.0033 20.3898 31.9546 20.4422 31.8785C20.4955 31.807 20.512 31.7162 20.4916 31.6061L20.239 30.2362C20.2348 30.2132 20.2378 30.1913 20.2482 30.1704C20.2586 30.1495 20.2753 30.1369 20.2982 30.1327L20.3533 30.1226C20.4038 30.1132 20.4345 30.1384 20.4455 30.1981L20.6982 31.568C20.7413 31.802 20.873 31.8987 21.0933 31.8581L21.2448 31.8302C21.4742 31.7879 21.5682 31.6543 21.5268 31.4294L21.2716 30.0457C21.2606 29.9861 21.2849 29.9507 21.3446 29.9397L21.3928 29.9308C21.4203 29.9258 21.4426 29.9311 21.4598 29.947C21.4724 29.9636 21.4807 29.9834 21.485 30.0064L21.8265 31.8581C21.8307 31.8811 21.8295 31.9003 21.8229 31.9158C21.8125 31.9367 21.7935 31.9496 21.766 31.9547L21.7178 31.9636C21.6995 31.967 21.6826 31.9654 21.6671 31.9587C21.647 31.9529 21.6222 31.9338 21.5924 31.9013C21.5387 31.9444 21.4874 31.9752 21.4387 31.9937C21.3907 32.0168 21.3415 32.033 21.291 32.0423L21.1327 32.0715C20.9675 32.102 20.8083 32.0625 20.6553 31.9531C20.5917 32.0455 20.5257 32.1123 20.4573 32.1534C20.3844 32.1953 20.3089 32.2234 20.2309 32.2378L20.0932 32.2632C19.928 32.2937 19.7879 32.2673 19.6729 32.1841C19.5533 32.1018 19.4774 31.9734 19.4453 31.799L19.1926 30.4291C19.1816 30.3695 19.206 30.3341 19.2656 30.3231Z" fill="white"/>
<path d="M17.6394 30.3051L17.6814 30.3059C17.714 30.3066 17.7438 30.3375 17.7705 30.3987C17.8977 30.3406 18.0033 30.3124 18.0873 30.314L18.3392 30.3191C18.4979 30.3223 18.6205 30.3761 18.7071 30.4805C18.7937 30.5849 18.8352 30.7258 18.8316 30.9031L18.8134 31.8129C18.8098 31.9902 18.7627 32.1293 18.672 32.2302C18.5813 32.331 18.4566 32.3799 18.298 32.3767L17.5981 32.3626C17.5421 32.3615 17.5147 32.333 17.5158 32.277L17.5536 30.3944C17.5548 30.3337 17.5834 30.3039 17.6394 30.3051ZM17.7115 31.9448C17.7111 31.9635 17.7152 31.9916 17.7238 32.0291C17.7325 32.0619 17.7483 32.0879 17.7713 32.1071C17.7942 32.1262 17.8313 32.1409 17.8824 32.1513L18.3023 32.1597C18.5076 32.1638 18.6126 32.0469 18.6174 31.809L18.6355 30.9062C18.6404 30.6635 18.5402 30.5402 18.3349 30.5361L18.0899 30.5311C17.8613 30.5266 17.7447 30.6386 17.7401 30.8672C17.7338 31.1845 17.7291 31.4154 17.7262 31.5601C17.7187 31.7046 17.7144 31.8025 17.7133 31.8539L17.7115 31.9448Z" fill="white"/>
<path d="M15.862 30.0438L15.9101 30.0528C15.956 30.0614 15.9733 30.0955 15.9622 30.1551L15.7056 31.5243C15.6618 31.7582 15.7408 31.8941 15.9426 31.9319L16.1903 31.9783C16.4058 32.0187 16.5347 31.9266 16.5768 31.7018L16.836 30.3189C16.8471 30.2593 16.878 30.2342 16.9284 30.2436L16.9766 30.2527C17.0224 30.2612 17.0398 30.2954 17.0286 30.355L16.6818 32.2058C16.6775 32.2287 16.6695 32.2462 16.6577 32.2582C16.6405 32.274 16.6204 32.2797 16.5975 32.2754L16.5493 32.2664C16.5356 32.2638 16.5254 32.2548 16.5188 32.2393C16.5068 32.2276 16.4927 32.2012 16.4767 32.1602C16.36 32.2001 16.2512 32.2105 16.1503 32.1916L15.9026 32.1452C15.7512 32.1169 15.6391 32.0436 15.5663 31.9255C15.4935 31.8074 15.4734 31.6612 15.5061 31.4869L15.7626 30.1178C15.7738 30.0581 15.8069 30.0335 15.862 30.0438Z" fill="white"/>
<path d="M12.7357 28.7596L13.1584 29.021C13.3132 29.1167 13.4041 29.236 13.431 29.3789C13.4554 29.5257 13.4124 29.6884 13.3019 29.867L12.4919 31.1767C12.3888 31.3434 12.2649 31.4506 12.1202 31.4983C11.9715 31.5435 11.8218 31.5195 11.671 31.4262L11.2483 31.1648C11.0975 31.0715 11.0111 30.9495 10.9891 30.7987C10.9631 30.6455 11.0017 30.4856 11.1048 30.3189L11.2042 30.1581C11.2214 30.1303 11.242 30.1102 11.2662 30.0977C11.2904 30.0852 11.3164 30.0876 11.3442 30.1048L11.3858 30.1305C11.4374 30.1625 11.4424 30.2121 11.4007 30.2796L11.3012 30.4404C11.1638 30.6626 11.1903 30.8327 11.3808 30.9505L11.8035 31.2119C11.9901 31.3273 12.1521 31.2738 12.2895 31.0516L13.0958 29.7477C13.2358 29.5215 13.2124 29.3507 13.0259 29.2353L12.6032 28.9739C12.4127 28.8561 12.2475 28.9103 12.1076 29.1366L12.0082 29.2973C11.9713 29.3568 11.9271 29.3706 11.8755 29.3387L11.8339 29.313C11.81 29.2982 11.7983 29.2773 11.7987 29.2501C11.7951 29.2204 11.7994 29.1956 11.8117 29.1758L11.9148 29.0091C12.0252 28.8305 12.1516 28.7193 12.2939 28.6756C12.4337 28.6359 12.581 28.6639 12.7357 28.7596Z" fill="white"/>
<path d="M11.2946 27.7215L11.3316 27.7536C11.3493 27.7689 11.3573 27.7882 11.3556 27.8115C11.3504 27.8317 11.3402 27.8506 11.3249 27.8682L9.58651 29.8723C9.54676 29.9181 9.50926 29.9258 9.474 29.8952L9.43699 29.8631C9.39469 29.8264 9.39341 29.7851 9.43316 29.7393L11.1715 27.7352C11.2113 27.6894 11.2523 27.6848 11.2946 27.7215Z" fill="white"/>
<path d="M9.96378 26.3797L9.99185 26.411C10.0137 26.4353 10.0114 26.4781 9.98496 26.5395C10.0498 26.5628 10.1046 26.5889 10.1493 26.6177C10.1909 26.6431 10.2304 26.6766 10.2678 26.7182L10.4316 26.9005C10.5345 27.0151 10.5789 27.1414 10.5649 27.2794C10.5509 27.4174 10.478 27.5457 10.346 27.6642L9.30455 28.5998C9.26289 28.6372 9.22491 28.6368 9.1906 28.5986L9.15318 28.557C9.13759 28.5396 9.13205 28.5195 9.13659 28.4966C9.13764 28.4768 9.14685 28.4592 9.16421 28.4436L10.2005 27.5127C10.381 27.3505 10.4042 27.1948 10.2701 27.0455L10.1064 26.8632C9.95672 26.6966 9.79682 26.6897 9.62671 26.8425L8.5748 27.7874C8.53314 27.8249 8.49516 27.8245 8.46086 27.7863L8.43279 27.755C8.4172 27.7377 8.41166 27.7176 8.41619 27.6947C8.41725 27.6749 8.42646 27.6572 8.44382 27.6416L9.84463 26.3833C9.88976 26.3427 9.92948 26.3416 9.96378 26.3797Z" fill="white"/>
<path d="M9.1902 25.2919L9.57095 25.8876C9.58352 25.9073 9.58571 25.928 9.57752 25.9499C9.56682 25.9678 9.55163 25.9831 9.53197 25.9956L7.29656 27.4244C7.24544 27.457 7.20732 27.4537 7.18219 27.4144L7.1558 27.3731C7.12815 27.3299 7.13989 27.2919 7.19101 27.2592L7.79852 26.8709C7.71647 26.8292 7.65824 26.7944 7.62383 26.7666C7.5869 26.7348 7.55461 26.6973 7.52697 26.654L7.39126 26.4417C7.30832 26.3119 7.28694 26.1788 7.32711 26.0424C7.36729 25.9059 7.46405 25.7887 7.61741 25.6907L8.41956 25.178C8.58078 25.075 8.72977 25.0351 8.86654 25.0585C8.99938 25.0843 9.10727 25.1622 9.1902 25.2919ZM7.73263 25.858C7.52423 25.9912 7.47531 26.1443 7.5859 26.3173L7.72161 26.5296C7.83973 26.7144 7.99709 26.744 8.1937 26.6184L9.30846 25.9059L8.99556 25.4163C8.88498 25.2433 8.72746 25.2221 8.52299 25.3528L7.73263 25.858Z" fill="white"/>
</svg>
