<svg width="36" height="36" viewBox="0 0 36 52" fill="none" xmlns="http://www.w3.org/2000/svg">
<circle cx="18" cy="26" r="18" fill="#54759E"/>
<circle cx="18" cy="26" r="16.9" stroke="white" stroke-width="0.2"/>
<circle cx="18" cy="26" r="15.8" stroke="white" stroke-width="0.4"/>
<path d="M8.19 18.2198C7.72662 19.3597 5.98959 19.9909 5.179 20.1639C6.07259 17.8984 9.3762 13.9238 14.6763 12.4426C20.0461 10.9419 24.4493 13.58 25.9275 14.6111C28.102 16.2618 32.3233 20.922 31.813 26.3578C31.3027 31.7935 29.0757 34.8038 28.026 35.6294C26.1713 34.8226 27.2851 31.1167 28.1164 29.5539C27.3023 30.0613 25.7709 31.8063 24.9345 32.349C21.9703 32.569 20.7331 31.2669 20.485 30.5883C19.7886 27.622 24.3359 26.4151 26.6967 26.1824C26.9453 26.2974 27.2145 27.7984 27.318 28.5346C28.1888 27.6309 28.3252 26.1946 28.2845 25.5894C29.8179 25.0662 30.0705 23.2348 30.005 22.3845C29.4438 22.8658 28.5962 22.9107 28.2425 22.873C28.7533 22.6205 29.6581 21.9378 30.0467 21.628C30.2058 20.1362 27.8834 19.7262 26.7023 19.7076C26.3561 18.4238 23.2025 19.6466 21.9036 19.7179C25.7125 17.1839 20.8866 16.4368 17.9853 16.3493C14.8294 21.7126 9.63926 23.6033 7.6081 23.0992C12.961 21.6052 13.4125 17.4562 12.9692 15.5684C12.3642 16.8728 11.3373 18.1743 10.8995 18.662C8.36628 21.3827 5.95088 21.7249 5.05983 21.556C8.04559 20.4743 8.39068 18.8811 8.19 18.2198Z" fill="#3F5B7D" stroke="#3F5B7D" stroke-width="0.3"/>
<path d="M20.2754 21.0193L17.6857 19.9929C18.1837 19.8069 19.3107 19.5159 19.8349 19.8398C20.3591 20.1637 20.3469 20.7611 20.2754 21.0193Z" fill="#636363" stroke="#636363" stroke-width="0.3"/>
<path d="M27.0832 36.6038C26.9278 36.9087 26.1119 37.4247 25.7234 37.6446C25.1307 36.8187 25.3225 35.3694 25.4925 34.748C25.6909 35.3995 26.6357 36.2567 27.0832 36.6038Z" fill="#636363" stroke="#636363" stroke-width="0.3"/>
<path d="M11.0959 33.0006C9.98358 35.0685 9.60655 36.7831 9.55708 37.382C11.0317 38.5047 13.5968 39.6972 16.9026 40.1036C19.5473 40.4287 23.2081 38.9886 24.7079 38.2279C21.9619 37.6125 19.5618 34.7254 18.705 33.3588C18.6376 35.2875 19.1933 36.6681 19.4796 37.1173C15.2761 35.6458 13.6416 30.7371 13.3498 28.4666C10.9638 33.0335 12.974 37.2432 14.2774 38.7772C12.3386 38.5589 11.3486 34.8352 11.0959 33.0006Z" fill="#636363" stroke="#636363" stroke-width="0.3"/>
<path d="M17.6987 21H15.3654C13.3403 21 11.6987 22.6416 11.6987 24.6667V24.6667M11.6987 24.6667H17.1532M11.6987 24.6667V32" stroke="#113150" stroke-width="2"/>
<path d="M17.4375 20.7556H15.1042C13.0792 20.7556 11.4375 22.3973 11.4375 24.4223V24.4223M11.4375 24.4223H16.8921M11.4375 24.4223V31.7556" stroke="white" stroke-width="2"/>
<path d="M14.2885 32V29.5M14.2885 29.5V27H16.0885C16.4885 27 17.2885 27.25 17.2885 28.25C17.2885 29.25 16.4885 29.5 16.0885 29.5H14.2885ZM14.2885 29.5C15.0885 29.9167 17.2885 31 17.2885 32" stroke="#113150" stroke-width="1.5"/>
<path d="M14.1284 31.7556V29.2556M14.1284 29.2556V26.7556H15.9284C16.3284 26.7556 17.1284 27.0056 17.1284 28.0056C17.1284 29.0056 16.3284 29.2556 15.9284 29.2556H14.1284ZM14.1284 29.2556C14.9284 29.6723 17.1284 30.7556 17.1284 31.7556" stroke="white" stroke-width="1.5"/>
<path d="M24.5625 23.5V23.5C24.5625 22.1193 23.4432 21 22.0625 21V21C20.6817 21 19.5625 22.1193 19.5625 23.5V28.5C19.5625 29.8807 20.6817 31 22.0625 31V31C23.4432 31 24.5625 29.8807 24.5625 28.5V28.5" stroke="#113150" stroke-width="2"/>
<path d="M24.2885 23.2556V23.2556C24.2885 21.8749 23.1693 20.7556 21.7885 20.7556V20.7556C20.4078 20.7556 19.2885 21.8749 19.2885 23.2556V28.2556C19.2885 29.6363 20.4078 30.7556 21.7885 30.7556V30.7556C23.1693 30.7556 24.2885 29.6363 24.2885 28.2556V28.2556" stroke="white" stroke-width="2"/>
<path d="M6.8189 17.397L6.31958 18.2403L7.22307 18.7753L7.67246 18.0163C7.68197 18.0003 7.69951 17.989 7.72508 17.9824C7.74902 17.9695 7.77303 17.9701 7.79712 17.9844L7.83929 18.0094C7.87543 18.0308 7.89357 18.0551 7.89373 18.0823C7.89627 18.1055 7.89278 18.1251 7.88327 18.1412L7.43388 18.9001L8.45181 19.5028C8.47189 19.5147 8.4884 19.5326 8.50134 19.5566C8.51027 19.5781 8.50642 19.603 8.48977 19.6311L8.46481 19.6732C8.4339 19.7254 8.39033 19.7349 8.33412 19.7016L6.07539 18.3641C6.0513 18.3499 6.03479 18.332 6.02586 18.3104C6.01292 18.2865 6.01477 18.2604 6.03141 18.2323L6.60206 17.2686C6.63297 17.2164 6.67654 17.207 6.73275 17.2402L6.78094 17.2688C6.80905 17.2854 6.82519 17.3085 6.82936 17.3381C6.8319 17.3613 6.82841 17.381 6.8189 17.397Z" fill="#113150"/>
<path d="M8.24785 16.6948L8.16674 16.7913C8.10667 16.8627 8.08868 16.9421 8.11277 17.0294C8.1333 17.1138 8.1882 17.1935 8.27749 17.2686L9.31674 18.1427C9.36317 18.1818 9.37136 18.2192 9.34132 18.2549L9.31428 18.287C9.29025 18.3156 9.25502 18.3103 9.2086 18.2713L7.76757 17.0592C7.72472 17.0232 7.71531 16.9909 7.73934 16.9623L7.76637 16.9301C7.77839 16.9159 7.79097 16.9081 7.80412 16.907C7.81727 16.9059 7.84771 16.9132 7.89544 16.9289C7.90949 16.8615 7.92318 16.809 7.93649 16.7714C7.94924 16.7272 7.97214 16.6855 8.00518 16.6462L8.08178 16.5552C8.0938 16.5409 8.11146 16.5344 8.13475 16.5357C8.15448 16.534 8.17327 16.5406 8.19113 16.5557L8.22863 16.5872C8.27148 16.6232 8.27789 16.6591 8.24785 16.6948Z" fill="#113150"/>
<path d="M10.7828 15.4941L9.99147 16.1735L10.2012 16.4178C10.3593 16.6019 10.5162 16.6271 10.672 16.4933L11.2084 16.0328C11.2509 15.9963 11.2904 15.9993 11.3269 16.0418L11.3588 16.079C11.3771 16.1002 11.3837 16.1222 11.3786 16.145C11.3736 16.1678 11.364 16.1853 11.3498 16.1974L10.8134 16.658C10.693 16.7613 10.5657 16.8029 10.4316 16.7828C10.2974 16.7627 10.1726 16.6853 10.0571 16.5508L9.46429 15.8603C9.34877 15.7258 9.29121 15.5907 9.2916 15.455C9.292 15.3194 9.35239 15.1999 9.47277 15.0965L9.70115 14.9004C9.82507 14.794 9.95411 14.7509 10.0883 14.7711C10.2224 14.7912 10.3472 14.8685 10.4628 15.0031L10.7774 15.3695C10.82 15.4191 10.8218 15.4606 10.7828 15.4941ZM10.3141 15.1308C10.159 14.9502 10.0018 14.9283 9.8425 15.0651L9.61413 15.2612C9.45834 15.3949 9.45796 15.5521 9.613 15.7327L9.85011 16.0088L10.5512 15.4069L10.3141 15.1308Z" fill="#113150"/>
<path d="M12.3699 14.4379L11.4789 14.9801L11.6463 15.2552C11.7724 15.4625 11.9232 15.5128 12.0986 15.4061L12.7026 15.0385C12.7504 15.0094 12.7889 15.0188 12.818 15.0666L12.8435 15.1085C12.858 15.1324 12.861 15.1552 12.8523 15.1768C12.8436 15.1985 12.8313 15.2142 12.8154 15.2239L12.2114 15.5914C12.0759 15.6739 11.9436 15.6943 11.8144 15.6527C11.6853 15.6111 11.5747 15.5146 11.4825 15.3631L11.0094 14.5857C10.9172 14.4342 10.8823 14.2916 10.9047 14.1578C10.9271 14.024 11.006 13.9158 11.1416 13.8334L11.3987 13.6769C11.5382 13.592 11.6726 13.5703 11.8017 13.6119C11.9308 13.6535 12.0415 13.7501 12.1336 13.9016L12.3847 14.3142C12.4187 14.37 12.4137 14.4113 12.3699 14.4379ZM11.9662 14.0035C11.8425 13.8002 11.6909 13.7531 11.5115 13.8623L11.2544 14.0187C11.079 14.1255 11.0531 14.2805 11.1769 14.4838L11.3661 14.7948L12.1554 14.3144L11.9662 14.0035Z" fill="#113150"/>
<path d="M14.4204 14.5007L14.3815 14.5164C14.3598 14.5251 14.3429 14.5269 14.3308 14.5217C14.3186 14.5165 14.2952 14.4957 14.2605 14.4594C14.2138 14.5184 14.1714 14.5631 14.1333 14.5936C14.0953 14.624 14.0524 14.6487 14.0048 14.6679L13.771 14.7619C13.6238 14.8211 13.4908 14.8218 13.372 14.764C13.2531 14.7062 13.1571 14.5863 13.084 14.4045L12.7418 13.5537C12.6704 13.3762 12.6575 13.2255 12.7032 13.1015C12.7472 12.9731 12.8427 12.8794 12.9899 12.8201L13.2237 12.7261C13.2714 12.7069 13.3194 12.6951 13.3679 12.6907C13.4165 12.6863 13.4862 12.6909 13.5772 12.7046L13.2925 11.9967C13.2699 11.9405 13.2802 11.9036 13.3235 11.8862L13.3625 11.8705C13.4144 11.8496 13.4517 11.8673 13.4743 11.9236L14.4644 14.3849C14.487 14.4412 14.4724 14.4798 14.4204 14.5007ZM13.7497 13.1332C13.6626 12.9168 13.513 12.8512 13.3008 12.9365L13.0735 13.028C12.883 13.1046 12.8331 13.2555 12.9236 13.4806L13.2632 14.3249C13.3538 14.55 13.4943 14.6243 13.6848 14.5476L13.9121 14.4562C14.1242 14.3709 14.1885 14.2243 14.1049 14.0165L13.7497 13.1332Z" fill="#113150"/>
<path d="M17.1186 13.8693L17.0704 13.8782C17.0429 13.8832 17.0205 13.8779 17.0034 13.862C16.9908 13.8454 16.9824 13.8256 16.9782 13.8026L16.7255 12.4327C16.6824 12.1987 16.5506 12.102 16.3303 12.1426L16.1927 12.168C16.0779 12.1891 15.9944 12.2378 15.942 12.3139C15.8887 12.3854 15.8723 12.4762 15.8926 12.5863L16.1452 13.9562C16.1494 13.9792 16.1464 14.0011 16.136 14.022C16.1256 14.0429 16.1089 14.0555 16.086 14.0597L16.0309 14.0699C15.9804 14.0792 15.9497 14.054 15.9387 13.9943L15.686 12.6244C15.6429 12.3904 15.5112 12.2937 15.2909 12.3343L15.1394 12.3622C14.91 12.4045 14.816 12.5381 14.8574 12.763L15.1126 14.1467C15.1236 14.2063 15.0993 14.2417 15.0396 14.2527L14.9915 14.2616C14.9639 14.2666 14.9416 14.2613 14.9244 14.2455C14.9119 14.2288 14.9035 14.209 14.8992 14.186L14.5577 12.3343C14.5535 12.3113 14.5547 12.2921 14.5613 12.2767C14.5717 12.2558 14.5907 12.2428 14.6182 12.2377L14.6664 12.2288C14.6847 12.2254 14.7016 12.227 14.7171 12.2337C14.7372 12.2395 14.762 12.2586 14.7918 12.2911C14.8455 12.248 14.8968 12.2172 14.9455 12.1987C14.9935 12.1756 15.0427 12.1594 15.0932 12.1501L15.2515 12.1209C15.4167 12.0904 15.5759 12.1299 15.7289 12.2393C15.7925 12.1469 15.8585 12.0801 15.9269 12.039C15.9998 11.9971 16.0753 11.969 16.1533 11.9546L16.291 11.9292C16.4562 11.8987 16.5963 11.9251 16.7113 12.0083C16.8309 12.0906 16.9068 12.219 16.9389 12.3934L17.1916 13.7633C17.2026 13.8229 17.1782 13.8583 17.1186 13.8693Z" fill="#113150"/>
<path d="M18.7448 13.8874L18.7028 13.8865C18.6702 13.8859 18.6405 13.8549 18.6137 13.7937C18.4865 13.8518 18.3809 13.8801 18.2969 13.8784L18.045 13.8733C17.8863 13.8701 17.7637 13.8163 17.6771 13.7119C17.5905 13.6075 17.549 13.4666 17.5526 13.2893L17.5708 12.3795C17.5744 12.2022 17.6215 12.0631 17.7122 11.9623C17.8029 11.8614 17.9276 11.8125 18.0862 11.8157L18.7861 11.8298C18.8421 11.8309 18.8695 11.8595 18.8684 11.9154L18.8306 13.7981C18.8294 13.8587 18.8008 13.8885 18.7448 13.8874ZM18.6727 12.2476C18.6731 12.2289 18.669 12.2008 18.6604 12.1633C18.6517 12.1305 18.6359 12.1045 18.6129 12.0853C18.59 12.0662 18.5529 12.0515 18.5018 12.0411L18.0819 12.0327C17.8766 12.0286 17.7716 12.1455 17.7668 12.3834L17.7487 13.2863C17.7438 13.5289 17.844 13.6522 18.0493 13.6564L18.2943 13.6613C18.5229 13.6659 18.6395 13.5538 18.6441 13.3252C18.6504 13.008 18.6551 12.777 18.658 12.6324C18.6655 12.4878 18.6698 12.3899 18.6709 12.3386L18.6727 12.2476Z" fill="#113150"/>
<path d="M20.5222 14.1486L20.4741 14.1396C20.4282 14.131 20.4109 14.0969 20.422 14.0373L20.6786 12.6681C20.7224 12.4342 20.6435 12.2983 20.4416 12.2605L20.1939 12.2141C19.9784 12.1737 19.8495 12.2658 19.8074 12.4906L19.5482 13.8735C19.5371 13.9332 19.5063 13.9582 19.4558 13.9488L19.4076 13.9398C19.3618 13.9312 19.3444 13.8971 19.3556 13.8374L19.7024 11.9866C19.7067 11.9637 19.7147 11.9462 19.7265 11.9342C19.7437 11.9184 19.7638 11.9127 19.7867 11.917L19.8349 11.926C19.8486 11.9286 19.8588 11.9376 19.8654 11.9531C19.8774 11.9648 19.8915 11.9912 19.9075 12.0322C20.0242 11.9923 20.133 11.9819 20.2339 12.0008L20.4816 12.0472C20.633 12.0756 20.7451 12.1488 20.8179 12.2669C20.8907 12.385 20.9108 12.5312 20.8781 12.7055L20.6216 14.0747C20.6104 14.1343 20.5773 14.159 20.5222 14.1486Z" fill="#113150"/>
<path d="M23.6485 15.4328L23.2258 15.1714C23.071 15.0757 22.9801 14.9564 22.9532 14.8136C22.9288 14.6668 22.9718 14.504 23.0823 14.3254L23.8923 13.0157C23.9954 12.849 24.1193 12.7418 24.264 12.6941C24.4127 12.6489 24.5624 12.6729 24.7132 12.7662L25.1359 13.0276C25.2867 13.1209 25.3731 13.2429 25.3951 13.3937C25.4211 13.5469 25.3825 13.7069 25.2794 13.8736L25.18 14.0343C25.1628 14.0621 25.1422 14.0822 25.118 14.0947C25.0938 14.1072 25.0678 14.1048 25.04 14.0876L24.9984 14.0619C24.9468 14.03 24.9418 13.9803 24.9836 13.9128L25.083 13.7521C25.2204 13.5298 25.1939 13.3597 25.0034 13.2419L24.5807 12.9805C24.3941 12.8652 24.2321 12.9186 24.0947 13.1409L23.2884 14.4447C23.1484 14.6709 23.1718 14.8417 23.3583 14.9571L23.781 15.2185C23.9715 15.3363 24.1367 15.2821 24.2766 15.0559L24.376 14.8951C24.4129 14.8356 24.4571 14.8218 24.5087 14.8537L24.5503 14.8795C24.5742 14.8942 24.5859 14.9152 24.5855 14.9424C24.5891 14.972 24.5848 14.9968 24.5725 15.0166L24.4694 15.1833C24.359 15.3619 24.2326 15.4731 24.0903 15.5168C23.9505 15.5565 23.8032 15.5285 23.6485 15.4328Z" fill="#113150"/>
<path d="M25.0896 16.4709L25.0526 16.4388C25.0349 16.4235 25.027 16.4042 25.0286 16.381C25.0338 16.3607 25.044 16.3418 25.0593 16.3242L26.7977 14.3201C26.8374 14.2743 26.875 14.2666 26.9102 14.2972L26.9472 14.3293C26.9895 14.366 26.9908 14.4073 26.951 14.4531L25.2127 16.4572C25.1729 16.503 25.1319 16.5076 25.0896 16.4709Z" fill="#113150"/>
<path d="M26.4204 17.8127L26.3924 17.7814C26.3705 17.7571 26.3728 17.7143 26.3992 17.6529C26.3344 17.6296 26.2796 17.6035 26.2349 17.5747C26.1933 17.5494 26.1538 17.5158 26.1164 17.4742L25.9526 17.2919C25.8497 17.1774 25.8053 17.0511 25.8193 16.913C25.8333 16.775 25.9062 16.6467 26.0382 16.5282L27.0797 15.5926C27.1213 15.5552 27.1593 15.5556 27.1936 15.5938L27.231 15.6354C27.2466 15.6528 27.2521 15.6729 27.2476 15.6958C27.2466 15.7156 27.2373 15.7333 27.22 15.7488L26.1837 16.6797C26.0032 16.8419 25.98 16.9976 26.1141 17.1469L26.2778 17.3292C26.4275 17.4958 26.5874 17.5027 26.7575 17.3499L27.8094 16.405C27.8511 16.3676 27.889 16.3679 27.9233 16.4061L27.9514 16.4374C27.967 16.4547 27.9725 16.4749 27.968 16.4977C27.9669 16.5175 27.9577 16.5352 27.9404 16.5508L26.5396 17.8091C26.4944 17.8497 26.4547 17.8509 26.4204 17.8127Z" fill="#113150"/>
<path d="M27.194 18.9005L26.8132 18.3048C26.8007 18.2851 26.7985 18.2644 26.8067 18.2425C26.8174 18.2246 26.8326 18.2094 26.8522 18.1968L29.0876 16.768C29.1388 16.7354 29.1769 16.7387 29.202 16.778L29.2284 16.8193C29.256 16.8626 29.2443 16.9005 29.1932 16.9332L28.5857 17.3215C28.6677 17.3632 28.726 17.398 28.7604 17.4258C28.7973 17.4576 28.8296 17.4951 28.8572 17.5384L28.9929 17.7507C29.0759 17.8805 29.0973 18.0136 29.0571 18.15C29.0169 18.2865 28.9201 18.4037 28.7668 18.5017L27.9646 19.0144C27.8034 19.1175 27.6544 19.1573 27.5177 19.1339C27.3848 19.1081 27.2769 19.0303 27.194 18.9005ZM28.6516 18.3344C28.86 18.2012 28.9089 18.0481 28.7983 17.8751L28.6626 17.6628C28.5445 17.478 28.3871 17.4484 28.1905 17.5741L27.0757 18.2866L27.3886 18.7761C27.4992 18.9491 27.6567 18.9703 27.8612 18.8396L28.6516 18.3344Z" fill="#113150"/>
<path d="M6.4347 17.3435L5.93538 18.1867L6.83887 18.7217L7.28826 17.9628C7.29777 17.9467 7.31531 17.9354 7.34088 17.9289C7.36482 17.9159 7.38883 17.9166 7.41292 17.9309L7.45509 17.9558C7.49122 17.9772 7.50937 18.0015 7.50953 18.0287C7.51207 18.0519 7.50858 18.0716 7.49907 18.0876L7.04968 18.8466L8.06761 19.4493C8.08769 19.4612 8.1042 19.4791 8.11714 19.503C8.12607 19.5246 8.12222 19.5494 8.10557 19.5775L8.08061 19.6197C8.04969 19.6719 8.00613 19.6814 7.94991 19.6481L5.69119 18.3106C5.6671 18.2963 5.65059 18.2784 5.64166 18.2569C5.62872 18.2329 5.63057 18.2069 5.64721 18.1788L6.21786 17.2151C6.24877 17.1629 6.29234 17.1534 6.34855 17.1867L6.39674 17.2153C6.42485 17.2319 6.44099 17.255 6.44516 17.2846C6.4477 17.3078 6.44421 17.3274 6.4347 17.3435Z" fill="white"/>
<path d="M7.86365 16.6413L7.78254 16.7377C7.72246 16.8092 7.70447 16.8885 7.72857 16.9759C7.7491 17.0602 7.804 17.14 7.89329 17.2151L8.93254 18.0892C8.97896 18.1282 8.98716 18.1656 8.95712 18.2013L8.93008 18.2335C8.90605 18.2621 8.87082 18.2568 8.8244 18.2178L7.38337 17.0057C7.34052 16.9696 7.33111 16.9373 7.35514 16.9088L7.38217 16.8766C7.39419 16.8623 7.40677 16.8546 7.41992 16.8535C7.43307 16.8523 7.46351 16.8597 7.51124 16.8754C7.52529 16.808 7.53898 16.7554 7.55229 16.7179C7.56504 16.6737 7.58794 16.632 7.62098 16.5927L7.69758 16.5016C7.7096 16.4873 7.72726 16.4808 7.75055 16.4821C7.77028 16.4804 7.78907 16.4871 7.80693 16.5021L7.84442 16.5337C7.88728 16.5697 7.89369 16.6056 7.86365 16.6413Z" fill="white"/>
<path d="M10.3986 15.4405L9.60727 16.12L9.81702 16.3643C9.9751 16.5484 10.132 16.5736 10.2878 16.4398L10.8242 15.9792C10.8667 15.9428 10.9062 15.9458 10.9427 15.9883L10.9746 16.0254C10.9929 16.0467 10.9994 16.0687 10.9944 16.0915C10.9894 16.1143 10.9798 16.1317 10.9656 16.1439L10.4292 16.6044C10.3088 16.7078 10.1815 16.7494 10.0474 16.7293C9.91323 16.7091 9.78839 16.6318 9.67287 16.4972L9.08009 15.8068C8.96457 15.6723 8.90701 15.5372 8.9074 15.4015C8.9078 15.2659 8.96819 15.1464 9.08857 15.043L9.31694 14.8469C9.44087 14.7405 9.56991 14.6974 9.70406 14.7175C9.83821 14.7377 9.96305 14.815 10.0786 14.9496L10.3932 15.316C10.4358 15.3656 10.4376 15.4071 10.3986 15.4405ZM9.92985 15.0772C9.77482 14.8967 9.61763 14.8748 9.4583 15.0116L9.22993 15.2076C9.07414 15.3414 9.07376 15.4986 9.2288 15.6791L9.46591 15.9553L10.167 15.3534L9.92985 15.0772Z" fill="white"/>
<path d="M11.9857 14.3844L11.0947 14.9266L11.2621 15.2017C11.3882 15.409 11.539 15.4593 11.7144 15.3525L12.3184 14.985C12.3662 14.9559 12.4047 14.9652 12.4338 15.0131L12.4593 15.0549C12.4738 15.0789 12.4768 15.1017 12.4681 15.1233C12.4594 15.145 12.4471 15.1607 12.4312 15.1704L11.8272 15.5379C11.6917 15.6204 11.5593 15.6408 11.4302 15.5992C11.3011 15.5576 11.1905 15.461 11.0983 15.3096L10.6252 14.5322C10.533 14.3807 10.4981 14.238 10.5205 14.1042C10.5429 13.9704 10.6218 13.8623 10.7574 13.7798L11.0145 13.6234C11.154 13.5384 11.2884 13.5168 11.4175 13.5584C11.5466 13.6 11.6573 13.6966 11.7494 13.8481L12.0005 14.2607C12.0345 14.3165 12.0295 14.3577 11.9857 14.3844ZM11.582 13.95C11.4583 13.7466 11.3067 13.6996 11.1273 13.8087L10.8702 13.9652C10.6948 14.0719 10.6689 14.227 10.7927 14.4303L10.9819 14.7412L11.7712 14.2609L11.582 13.95Z" fill="white"/>
<path d="M14.0362 14.4472L13.9973 14.4629C13.9756 14.4716 13.9587 14.4733 13.9466 14.4681C13.9344 14.463 13.911 14.4422 13.8763 14.4059C13.8296 14.4649 13.7872 14.5096 13.7491 14.54C13.7111 14.5704 13.6682 14.5952 13.6206 14.6144L13.3868 14.7084C13.2396 14.7676 13.1066 14.7683 12.9877 14.7105C12.8689 14.6526 12.7729 14.5328 12.6998 14.351L12.3576 13.5002C12.2862 13.3227 12.2733 13.1719 12.319 13.0479C12.363 12.9196 12.4585 12.8258 12.6057 12.7666L12.8395 12.6726C12.8871 12.6534 12.9352 12.6416 12.9837 12.6372C13.0323 12.6328 13.102 12.6374 13.193 12.6511L12.9083 11.9432C12.8857 11.8869 12.896 11.8501 12.9393 11.8327L12.9783 11.817C13.0302 11.7961 13.0675 11.8138 13.0901 11.8701L14.0802 14.3314C14.1028 14.3877 14.0882 14.4263 14.0362 14.4472ZM13.3655 13.0797C13.2784 12.8632 13.1288 12.7977 12.9166 12.883L12.6893 12.9744C12.4988 13.0511 12.4489 13.2019 12.5394 13.4271L12.879 14.2713C12.9696 14.4965 13.1101 14.5707 13.3006 14.4941L13.5279 14.4027C13.74 14.3173 13.8043 14.1708 13.7207 13.9629L13.3655 13.0797Z" fill="white"/>
<path d="M16.7344 13.8157L16.6862 13.8246C16.6587 13.8297 16.6363 13.8243 16.6192 13.8085C16.6066 13.7919 16.5982 13.772 16.594 13.7491L16.3413 12.3792C16.2982 12.1451 16.1664 12.0484 15.9461 12.0891L15.8085 12.1145C15.6937 12.1356 15.6102 12.1842 15.5578 12.2603C15.5045 12.3319 15.4881 12.4227 15.5084 12.5328L15.761 13.9027C15.7652 13.9257 15.7622 13.9476 15.7518 13.9685C15.7414 13.9894 15.7247 14.0019 15.7018 14.0062L15.6467 14.0163C15.5962 14.0256 15.5655 14.0005 15.5545 13.9408L15.3018 12.5709C15.2587 12.3369 15.127 12.2401 14.9067 12.2808L14.7552 12.3087C14.5258 12.351 14.4318 12.4846 14.4732 12.7095L14.7284 14.0932C14.7394 14.1528 14.7151 14.1881 14.6554 14.1991L14.6072 14.208C14.5797 14.2131 14.5574 14.2077 14.5402 14.1919C14.5277 14.1753 14.5193 14.1555 14.515 14.1325L14.1735 12.2807C14.1693 12.2578 14.1705 12.2386 14.1771 12.2231C14.1875 12.2022 14.2065 12.1892 14.234 12.1842L14.2822 12.1753C14.3005 12.1719 14.3174 12.1735 14.3329 12.1802C14.353 12.186 14.3778 12.2051 14.4076 12.2376C14.4613 12.1944 14.5126 12.1636 14.5613 12.1451C14.6093 12.1221 14.6585 12.1059 14.709 12.0966L14.8673 12.0674C15.0325 12.0369 15.1917 12.0764 15.3447 12.1857C15.4083 12.0933 15.4743 12.0266 15.5427 11.9855C15.6156 11.9436 15.6911 11.9154 15.7691 11.9011L15.9068 11.8757C16.072 11.8452 16.2121 11.8716 16.3271 11.9547C16.4467 12.0371 16.5226 12.1655 16.5547 12.3398L16.8074 13.7097C16.8184 13.7694 16.794 13.8047 16.7344 13.8157Z" fill="white"/>
<path d="M18.3606 13.8338L18.3186 13.833C18.286 13.8323 18.2563 13.8014 18.2295 13.7402C18.1023 13.7983 17.9967 13.8265 17.9127 13.8248L17.6608 13.8198C17.5021 13.8166 17.3795 13.7628 17.2929 13.6584C17.2063 13.554 17.1648 13.4131 17.1684 13.2358L17.1866 12.326C17.1902 12.1487 17.2373 12.0096 17.328 11.9087C17.4187 11.8079 17.5434 11.759 17.702 11.7622L18.4019 11.7762C18.4579 11.7774 18.4853 11.8059 18.4842 11.8619L18.4464 13.7445C18.4452 13.8052 18.4166 13.835 18.3606 13.8338ZM18.2885 12.1941C18.2889 12.1754 18.2848 12.1473 18.2762 12.1098C18.2675 12.0769 18.2517 12.051 18.2287 12.0318C18.2058 12.0127 18.1687 11.9979 18.1176 11.9876L17.6977 11.9792C17.4924 11.975 17.3874 12.092 17.3826 12.3299L17.3645 13.2327C17.3596 13.4753 17.4598 13.5987 17.6651 13.6028L17.9101 13.6077C18.1387 13.6123 18.2553 13.5003 18.2599 13.2717C18.2662 12.9544 18.2709 12.7235 18.2738 12.5788C18.2813 12.4343 18.2856 12.3364 18.2867 12.285L18.2885 12.1941Z" fill="white"/>
<path d="M20.138 14.0951L20.0899 14.0861C20.044 14.0775 20.0267 14.0434 20.0378 13.9837L20.2944 12.6146C20.3382 12.3807 20.2593 12.2448 20.0574 12.207L19.8097 12.1605C19.5942 12.1201 19.4653 12.2123 19.4232 12.4371L19.164 13.82C19.1529 13.8796 19.1221 13.9047 19.0716 13.8953L19.0234 13.8862C18.9776 13.8776 18.9602 13.8435 18.9714 13.7839L19.3182 11.9331C19.3225 11.9102 19.3305 11.8927 19.3423 11.8807C19.3595 11.8649 19.3796 11.8592 19.4025 11.8634L19.4507 11.8725C19.4644 11.8751 19.4746 11.8841 19.4812 11.8996C19.4932 11.9113 19.5073 11.9377 19.5233 11.9787C19.64 11.9388 19.7488 11.9283 19.8497 11.9473L20.0974 11.9937C20.2488 12.022 20.3609 12.0953 20.4337 12.2134C20.5065 12.3315 20.5266 12.4777 20.4939 12.652L20.2374 14.0211C20.2262 14.0808 20.1931 14.1054 20.138 14.0951Z" fill="white"/>
<path d="M23.2643 15.3793L22.8416 15.1179C22.6868 15.0221 22.5959 14.9029 22.569 14.76C22.5446 14.6132 22.5876 14.4505 22.6981 14.2719L23.5081 12.9622C23.6112 12.7955 23.7351 12.6883 23.8798 12.6406C24.0285 12.5954 24.1782 12.6194 24.329 12.7127L24.7517 12.9741C24.9025 13.0673 24.9889 13.1894 25.0109 13.3401C25.0369 13.4934 24.9983 13.6533 24.8952 13.82L24.7958 13.9808C24.7786 14.0086 24.758 14.0287 24.7338 14.0412C24.7096 14.0536 24.6836 14.0513 24.6558 14.0341L24.6142 14.0083C24.5626 13.9764 24.5576 13.9267 24.5993 13.8593L24.6988 13.6985C24.8362 13.4763 24.8097 13.3062 24.6192 13.1884L24.1965 12.927C24.0099 12.8116 23.8479 12.8651 23.7105 13.0873L22.9042 14.3911C22.7642 14.6174 22.7876 14.7882 22.9741 14.9035L23.3968 15.165C23.5873 15.2828 23.7525 15.2286 23.8924 15.0023L23.9918 14.8416C24.0287 14.7821 24.0729 14.7682 24.1245 14.8002L24.1661 14.8259C24.19 14.8407 24.2017 14.8616 24.2013 14.8888C24.2049 14.9185 24.2006 14.9432 24.1883 14.9631L24.0852 15.1298C23.9748 15.3084 23.8484 15.4196 23.7061 15.4633C23.5663 15.503 23.419 15.475 23.2643 15.3793Z" fill="white"/>
<path d="M24.7054 16.4174L24.6684 16.3853C24.6507 16.37 24.6427 16.3507 24.6444 16.3274C24.6496 16.3072 24.6598 16.2883 24.6751 16.2707L26.4135 14.2666C26.4532 14.2207 26.4907 14.2131 26.526 14.2437L26.563 14.2758C26.6053 14.3125 26.6066 14.3538 26.5668 14.3996L24.8285 16.4037C24.7887 16.4495 24.7477 16.4541 24.7054 16.4174Z" fill="white"/>
<path d="M26.0362 17.7591L26.0082 17.7279C25.9863 17.7036 25.9886 17.6608 26.015 17.5994C25.9502 17.5761 25.8954 17.55 25.8507 17.5212C25.8091 17.4958 25.7696 17.4623 25.7322 17.4207L25.5684 17.2384C25.4655 17.1238 25.4211 16.9975 25.4351 16.8595C25.4491 16.7214 25.522 16.5932 25.654 16.4747L26.6955 15.5391C26.7371 15.5017 26.7751 15.5021 26.8094 15.5402L26.8468 15.5819C26.8624 15.5993 26.8679 15.6194 26.8634 15.6423C26.8624 15.662 26.8531 15.6797 26.8358 15.6953L25.7995 16.6262C25.619 16.7884 25.5958 16.9441 25.7299 17.0934L25.8936 17.2756C26.0433 17.4423 26.2032 17.4492 26.3733 17.2964L27.4252 16.3515C27.4669 16.314 27.5048 16.3144 27.5391 16.3526L27.5672 16.3838C27.5828 16.4012 27.5883 16.4213 27.5838 16.4442C27.5827 16.464 27.5735 16.4817 27.5562 16.4973L26.1554 17.7556C26.1102 17.7962 26.0705 17.7973 26.0362 17.7591Z" fill="white"/>
<path d="M26.8098 18.847L26.429 18.2513C26.4165 18.2316 26.4143 18.2108 26.4225 18.189C26.4332 18.1711 26.4484 18.1558 26.468 18.1433L28.7034 16.7145C28.7546 16.6818 28.7927 16.6852 28.8178 16.7245L28.8442 16.7658C28.8718 16.809 28.8601 16.847 28.809 16.8797L28.2015 17.268C28.2835 17.3097 28.3418 17.3445 28.3762 17.3723C28.4131 17.4041 28.4454 17.4416 28.473 17.4849L28.6087 17.6972C28.6917 17.8269 28.7131 17.9601 28.6729 18.0965C28.6327 18.2329 28.5359 18.3502 28.3826 18.4482L27.5804 18.9609C27.4192 19.0639 27.2702 19.1038 27.1335 19.0804C27.0006 19.0545 26.8927 18.9767 26.8098 18.847ZM28.2674 18.2809C28.4758 18.1477 28.5247 17.9946 28.4141 17.8216L28.2784 17.6093C28.1603 17.4244 28.0029 17.3949 27.8063 17.5205L26.6915 18.233L27.0044 18.7226C27.115 18.8956 27.2725 18.9168 27.477 18.7861L28.2674 18.2809Z" fill="white"/>
<path d="M29.1811 34.7419L29.6804 33.8986L28.7769 33.3636L28.3275 34.1226C28.318 34.1386 28.3005 34.1499 28.2749 34.1565C28.251 34.1694 28.227 34.1688 28.2029 34.1545L28.1607 34.1295C28.1246 34.1081 28.1064 34.0838 28.1063 34.0566C28.1037 34.0334 28.1072 34.0138 28.1167 33.9977L28.5661 33.2388L27.5482 32.6361C27.5281 32.6242 27.5116 32.6063 27.4987 32.5823C27.4897 32.5608 27.4936 32.5359 27.5102 32.5078L27.5352 32.4657C27.5661 32.4135 27.6097 32.404 27.6659 32.4373L29.9246 33.7747C29.9487 33.789 29.9652 33.8069 29.9741 33.8285C29.9871 33.8524 29.9852 33.8784 29.9686 33.9065L29.3979 34.8703C29.367 34.9225 29.3235 34.9319 29.2672 34.8986L29.2191 34.8701C29.191 34.8535 29.1748 34.8303 29.1706 34.8008C29.1681 34.7776 29.1716 34.7579 29.1811 34.7419Z" fill="#113150"/>
<path d="M27.7522 35.4441L27.8333 35.3476C27.8933 35.2762 27.9113 35.1968 27.8872 35.1095C27.8667 35.0251 27.8118 34.9454 27.7225 34.8703L26.6833 33.9962C26.6368 33.9571 26.6286 33.9197 26.6587 33.884L26.6857 33.8519C26.7097 33.8233 26.745 33.8285 26.7914 33.8676L28.2324 35.0797C28.2753 35.1157 28.2847 35.148 28.2607 35.1766L28.2336 35.2087C28.2216 35.223 28.209 35.2307 28.1959 35.2319C28.1827 35.233 28.1523 35.2257 28.1046 35.21C28.0905 35.2774 28.0768 35.3299 28.0635 35.3675C28.0508 35.4117 28.0279 35.4534 27.9948 35.4927L27.9182 35.5837C27.9062 35.598 27.8885 35.6045 27.8652 35.6032C27.8455 35.6049 27.8267 35.5983 27.8089 35.5832L27.7714 35.5517C27.7285 35.5156 27.7221 35.4798 27.7522 35.4441Z" fill="#113150"/>
<path d="M25.2172 36.6448L26.0085 35.9654L25.7988 35.7211C25.6407 35.537 25.4838 35.5118 25.328 35.6456L24.7916 36.1061C24.7491 36.1426 24.7096 36.1396 24.6731 36.0971L24.6412 36.0599C24.6229 36.0387 24.6163 36.0167 24.6214 35.9939C24.6264 35.9711 24.636 35.9536 24.6502 35.9415L25.1866 35.4809C25.307 35.3776 25.4343 35.336 25.5684 35.3561C25.7026 35.3762 25.8274 35.4536 25.9429 35.5881L26.5357 36.2785C26.6512 36.4131 26.7088 36.5482 26.7084 36.6838C26.708 36.8195 26.6476 36.939 26.5272 37.0424L26.2989 37.2384C26.1749 37.3448 26.0459 37.388 25.9117 37.3678C25.7776 37.3477 25.6528 37.2704 25.5372 37.1358L25.2226 36.7693C25.18 36.7198 25.1782 36.6783 25.2172 36.6448ZM25.6859 37.0081C25.841 37.1887 25.9982 37.2106 26.1575 37.0738L26.3859 36.8777C26.5417 36.744 26.542 36.5868 26.387 36.4062L26.1499 36.1301L25.4488 36.732L25.6859 37.0081Z" fill="#113150"/>
<path d="M23.6301 37.7009L24.5211 37.1587L24.3537 36.8837C24.2276 36.6764 24.0768 36.6261 23.9014 36.7328L23.2974 37.1004C23.2496 37.1295 23.2111 37.1201 23.182 37.0723L23.1565 37.0304C23.142 37.0065 23.139 36.9837 23.1477 36.962C23.1564 36.9404 23.1687 36.9247 23.1846 36.915L23.7886 36.5475C23.9241 36.465 24.0565 36.4445 24.1856 36.4862C24.3147 36.5278 24.4253 36.6243 24.5175 36.7758L24.9906 37.5532C25.0828 37.7047 25.1177 37.8473 25.0953 37.9811C25.0729 38.1149 24.994 38.223 24.8584 38.3055L24.6013 38.462C24.4618 38.5469 24.3274 38.5686 24.1983 38.5269C24.0692 38.4853 23.9585 38.3888 23.8664 38.2373L23.6153 37.8247C23.5813 37.7689 23.5863 37.7276 23.6301 37.7009ZM24.0338 38.1354C24.1575 38.3387 24.3091 38.3858 24.4885 38.2766L24.7456 38.1202C24.921 38.0134 24.9469 37.8584 24.8231 37.6551L24.6339 37.3441L23.8446 37.8245L24.0338 38.1354Z" fill="#113150"/>
<path d="M21.5796 37.6382L21.6185 37.6225C21.6402 37.6138 21.6571 37.612 21.6692 37.6172C21.6814 37.6224 21.7048 37.6431 21.7395 37.6795C21.7862 37.6205 21.8286 37.5757 21.8667 37.5453C21.9047 37.5149 21.9476 37.4902 21.9952 37.471L22.229 37.377C22.3762 37.3177 22.5092 37.3171 22.6281 37.3749C22.7469 37.4327 22.8429 37.5525 22.916 37.7344L23.2582 38.5851C23.3296 38.7627 23.3425 38.9134 23.2968 39.0374C23.2528 39.1658 23.1573 39.2595 23.0101 39.3187L22.7763 39.4128C22.7286 39.4319 22.6806 39.4437 22.6321 39.4482C22.5835 39.4526 22.5138 39.448 22.4228 39.4343L22.7075 40.1422C22.7301 40.1984 22.7198 40.2353 22.6765 40.2527L22.6375 40.2684C22.5856 40.2893 22.5483 40.2716 22.5257 40.2153L21.5356 37.754C21.513 37.6977 21.5276 37.6591 21.5796 37.6382ZM22.2503 39.0056C22.3374 39.2221 22.487 39.2877 22.6992 39.2024L22.9265 39.1109C23.117 39.0343 23.1669 38.8834 23.0764 38.6583L22.7368 37.814C22.6462 37.5889 22.5057 37.5146 22.3152 37.5913L22.0879 37.6827C21.8758 37.768 21.8115 37.9146 21.8951 38.1224L22.2503 39.0056Z" fill="#113150"/>
<path d="M18.8814 38.2696L18.9296 38.2607C18.9571 38.2556 18.9795 38.261 18.9966 38.2768C19.0092 38.2935 19.0176 38.3133 19.0218 38.3363L19.2745 39.7062C19.3176 39.9402 19.4494 40.0369 19.6697 39.9963L19.8073 39.9709C19.9221 39.9497 20.0056 39.9011 20.058 39.825C20.1113 39.7535 20.1277 39.6627 20.1074 39.5525L19.8548 38.1826C19.8506 38.1597 19.8536 38.1378 19.864 38.1169C19.8744 38.096 19.8911 38.0834 19.914 38.0792L19.9691 38.069C20.0196 38.0597 20.0503 38.0849 20.0613 38.1445L20.314 39.5144C20.3571 39.7485 20.4888 39.8452 20.7091 39.8046L20.8606 39.7767C21.09 39.7343 21.184 39.6007 21.1426 39.3759L20.8874 37.9922C20.8764 37.9325 20.9007 37.8972 20.9604 37.8862L21.0085 37.8773C21.0361 37.8722 21.0584 37.8776 21.0756 37.8934C21.0881 37.9101 21.0965 37.9299 21.1008 37.9528L21.4423 39.8046C21.4465 39.8276 21.4453 39.8468 21.4387 39.8622C21.4283 39.8831 21.4093 39.8961 21.3818 39.9012L21.3336 39.9101C21.3153 39.9135 21.2984 39.9118 21.2829 39.9052C21.2628 39.8994 21.238 39.8803 21.2082 39.8478C21.1545 39.8909 21.1032 39.9217 21.0545 39.9402C21.0065 39.9633 20.9573 39.9795 20.9068 39.9888L20.7485 40.018C20.5833 40.0485 20.4241 40.009 20.2711 39.8996C20.2075 39.992 20.1415 40.0588 20.0731 40.0998C20.0002 40.1418 19.9247 40.1699 19.8467 40.1843L19.709 40.2097C19.5438 40.2402 19.4037 40.2138 19.2887 40.1306C19.1691 40.0483 19.0932 39.9199 19.0611 39.7455L18.8084 38.3756C18.7974 38.3159 18.8218 38.2806 18.8814 38.2696Z" fill="#113150"/>
<path d="M17.2552 38.2515L17.2972 38.2524C17.3298 38.253 17.3595 38.284 17.3863 38.3452C17.5135 38.287 17.6191 38.2588 17.7031 38.2605L17.955 38.2656C18.1137 38.2688 18.2363 38.3226 18.3229 38.427C18.4095 38.5314 18.451 38.6723 18.4474 38.8496L18.4292 39.7594C18.4256 39.9367 18.3785 40.0758 18.2878 40.1766C18.1971 40.2775 18.0724 40.3263 17.9138 40.3232L17.2139 40.3091C17.1579 40.308 17.1305 40.2794 17.1316 40.2234L17.1694 38.3408C17.1706 38.2802 17.1992 38.2504 17.2552 38.2515ZM17.3273 39.8913C17.3269 39.91 17.331 39.9381 17.3396 39.9756C17.3483 40.0084 17.3641 40.0344 17.3871 40.0535C17.41 40.0727 17.4471 40.0874 17.4982 40.0978L17.9181 40.1062C18.1234 40.1103 18.2284 39.9934 18.2332 39.7554L18.2513 38.8526C18.2562 38.61 18.156 38.4866 17.9507 38.4825L17.7057 38.4776C17.4771 38.473 17.3605 38.585 17.3559 38.8137C17.3496 39.1309 17.3449 39.3619 17.342 39.5065C17.3345 39.6511 17.3302 39.749 17.3291 39.8003L17.3273 39.8913Z" fill="#113150"/>
<path d="M15.4778 37.9903L15.5259 37.9993C15.5718 38.0079 15.5891 38.042 15.578 38.1016L15.3214 39.4708C15.2776 39.7047 15.3565 39.8406 15.5584 39.8784L15.8061 39.9248C16.0216 39.9652 16.1505 39.873 16.1926 39.6483L16.4518 38.2654C16.4629 38.2057 16.4937 38.1806 16.5442 38.1901L16.5924 38.1991C16.6382 38.2077 16.6556 38.2418 16.6444 38.3015L16.2976 40.1522C16.2933 40.1752 16.2853 40.1927 16.2735 40.2047C16.2563 40.2205 16.2362 40.2262 16.2133 40.2219L16.1651 40.2129C16.1514 40.2103 16.1412 40.2013 16.1346 40.1858C16.1226 40.174 16.1085 40.1477 16.0925 40.1067C15.9758 40.1465 15.867 40.157 15.7661 40.1381L15.5184 40.0917C15.367 40.0633 15.2549 39.9901 15.1821 39.872C15.1093 39.7539 15.0892 39.6077 15.1219 39.4334L15.3784 38.0642C15.3896 38.0046 15.4227 37.9799 15.4778 37.9903Z" fill="#113150"/>
<path d="M12.3515 36.7061L12.7742 36.9675C12.929 37.0632 13.0199 37.1825 13.0468 37.3253C13.0712 37.4721 13.0282 37.6348 12.9177 37.8134L12.1077 39.1232C12.0046 39.2899 11.8807 39.3971 11.736 39.4448C11.5873 39.49 11.4376 39.466 11.2868 39.3727L10.8641 39.1113C10.7133 39.018 10.6269 38.896 10.6049 38.7452C10.5789 38.592 10.6175 38.432 10.7206 38.2653L10.82 38.1046C10.8372 38.0768 10.8578 38.0567 10.882 38.0442C10.9062 38.0317 10.9322 38.0341 10.96 38.0512L11.0016 38.077C11.0532 38.1089 11.0582 38.1586 11.0165 38.2261L10.917 38.3868C10.7796 38.6091 10.8061 38.7791 10.9966 38.897L11.4193 39.1584C11.6059 39.2737 11.7679 39.2203 11.9053 38.998L12.7116 37.6942C12.8516 37.468 12.8282 37.2972 12.6417 37.1818L12.219 36.9204C12.0285 36.8026 11.8633 36.8568 11.7234 37.083L11.624 37.2438C11.5871 37.3033 11.5429 37.3171 11.4913 37.2852L11.4497 37.2594C11.4258 37.2447 11.4141 37.2237 11.4145 37.1965C11.4109 37.1669 11.4152 37.1421 11.4275 37.1223L11.5306 36.9556C11.641 36.777 11.7674 36.6658 11.9097 36.6221C12.0495 36.5824 12.1968 36.6104 12.3515 36.7061Z" fill="#113150"/>
<path d="M10.9104 35.668L10.9474 35.7001C10.9651 35.7154 10.9731 35.7347 10.9714 35.7579C10.9662 35.7781 10.956 35.7971 10.9407 35.8147L9.2023 37.8188C9.16255 37.8646 9.12505 37.8722 9.0898 37.8417L9.05278 37.8096C9.01048 37.7729 9.0092 37.7316 9.04896 37.6858L10.7873 35.6817C10.8271 35.6358 10.8681 35.6313 10.9104 35.668Z" fill="#113150"/>
<path d="M9.57958 34.3262L9.60765 34.3575C9.62948 34.3818 9.62718 34.4246 9.60076 34.486C9.6656 34.5093 9.72039 34.5353 9.7651 34.5642C9.80671 34.5895 9.84622 34.623 9.88364 34.6647L10.0474 34.847C10.1503 34.9615 10.1947 35.0878 10.1807 35.2259C10.1667 35.3639 10.0938 35.4922 9.96184 35.6107L8.92035 36.5463C8.87869 36.5837 8.8407 36.5833 8.8064 36.5451L8.76898 36.5035C8.75338 36.4861 8.74785 36.466 8.75238 36.4431C8.75344 36.4233 8.76265 36.4056 8.78001 36.39L9.81629 35.4591C9.99682 35.297 10.02 35.1413 9.88593 34.992L9.72221 34.8097C9.57252 34.6431 9.41262 34.6362 9.24251 34.789L8.1906 35.7339C8.14894 35.7713 8.11096 35.7709 8.07665 35.7328L8.04859 35.7015C8.03299 35.6841 8.02746 35.664 8.03199 35.6411C8.03305 35.6214 8.04226 35.6037 8.05962 35.5881L9.46043 34.3297C9.50556 34.2892 9.54527 34.288 9.57958 34.3262Z" fill="#113150"/>
<path d="M8.806 33.2384L9.18675 33.8341C9.19932 33.8538 9.20151 33.8745 9.19332 33.8964C9.18262 33.9143 9.16743 33.9295 9.14777 33.9421L6.91236 35.3708C6.86124 35.4035 6.82312 35.4002 6.79799 35.3609L6.7716 35.3196C6.74395 35.2763 6.75569 35.2384 6.80681 35.2057L7.41432 34.8174C7.33227 34.7757 7.27404 34.7409 7.23963 34.7131C7.2027 34.6813 7.17041 34.6438 7.14277 34.6005L7.00705 34.3882C6.92412 34.2584 6.90274 34.1253 6.94291 33.9889C6.98309 33.8524 7.07985 33.7352 7.23321 33.6372L8.03536 33.1245C8.19658 33.0214 8.34557 32.9816 8.48234 33.0049C8.61518 33.0308 8.72307 33.1086 8.806 33.2384ZM7.34843 33.8045C7.14003 33.9377 7.09111 34.0908 7.20169 34.2638L7.33741 34.4761C7.45553 34.6609 7.61289 34.6905 7.8095 34.5648L8.92426 33.8523L8.61136 33.3628C8.50078 33.1898 8.34326 33.1686 8.13879 33.2993L7.34843 33.8045Z" fill="#113150"/>
<path d="M29.5653 34.7954L30.0646 33.9521L29.1611 33.4172L28.7117 34.1761C28.7022 34.1922 28.6847 34.2035 28.6591 34.21C28.6352 34.223 28.6112 34.2223 28.5871 34.208L28.5449 34.1831C28.5088 34.1617 28.4906 34.1374 28.4905 34.1101C28.4879 34.087 28.4914 34.0673 28.5009 34.0513L28.9503 33.2923L27.9324 32.6896C27.9123 32.6777 27.8958 32.6598 27.8829 32.6358C27.8739 32.6143 27.8778 32.5895 27.8944 32.5613L27.9194 32.5192C27.9503 32.467 27.9939 32.4575 28.0501 32.4908L30.3088 33.8283C30.3329 33.8425 30.3494 33.8605 30.3583 33.882C30.3713 33.9059 30.3694 33.932 30.3528 33.9601L29.7821 34.9238C29.7512 34.976 29.7077 34.9855 29.6514 34.9522L29.6033 34.9236C29.5752 34.907 29.559 34.8839 29.5548 34.8543C29.5523 34.8311 29.5558 34.8115 29.5653 34.7954Z" fill="white"/>
<path d="M28.1364 35.4976L28.2175 35.4012C28.2775 35.3297 28.2955 35.2503 28.2714 35.163C28.2509 35.0787 28.196 34.9989 28.1067 34.9238L27.0675 34.0497C27.021 34.0106 27.0128 33.9733 27.0429 33.9375L27.0699 33.9054C27.0939 33.8768 27.1292 33.8821 27.1756 33.9211L28.6166 35.1332C28.6595 35.1693 28.6689 35.2016 28.6449 35.2301L28.6178 35.2623C28.6058 35.2766 28.5932 35.2843 28.5801 35.2854C28.5669 35.2865 28.5365 35.2792 28.4888 35.2635C28.4747 35.3309 28.461 35.3835 28.4477 35.421C28.435 35.4652 28.4121 35.5069 28.379 35.5462L28.3024 35.6373C28.2904 35.6515 28.2727 35.658 28.2494 35.6567C28.2297 35.6584 28.2109 35.6518 28.1931 35.6368L28.1556 35.6052C28.1127 35.5692 28.1063 35.5333 28.1364 35.4976Z" fill="white"/>
<path d="M25.6014 36.6984L26.3927 36.0189L26.183 35.7746C26.0249 35.5905 25.868 35.5653 25.7122 35.6991L25.1758 36.1596C25.1333 36.1961 25.0938 36.1931 25.0573 36.1506L25.0254 36.1134C25.0071 36.0922 25.0006 36.0702 25.0056 36.0474C25.0106 36.0246 25.0202 36.0072 25.0344 35.995L25.5708 35.5344C25.6912 35.4311 25.8185 35.3895 25.9526 35.4096C26.0868 35.4298 26.2116 35.5071 26.3271 35.6416L26.9199 36.3321C27.0354 36.4666 27.093 36.6017 27.0926 36.7374C27.0922 36.873 27.0318 36.9925 26.9114 37.0959L26.6831 37.292C26.5591 37.3984 26.4301 37.4415 26.2959 37.4214C26.1618 37.4012 26.037 37.3239 25.9214 37.1893L25.6068 36.8229C25.5642 36.7733 25.5624 36.7318 25.6014 36.6984ZM26.0701 37.0617C26.2252 37.2422 26.3824 37.2641 26.5417 37.1273L26.7701 36.9313C26.9259 36.7975 26.9262 36.6403 26.7712 36.4598L26.5341 36.1836L25.833 36.7855L26.0701 37.0617Z" fill="white"/>
<path d="M24.0143 37.7545L24.9053 37.2123L24.7379 36.9372C24.6118 36.7299 24.461 36.6796 24.2856 36.7864L23.6816 37.1539C23.6338 37.183 23.5953 37.1736 23.5662 37.1258L23.5407 37.0839C23.5262 37.06 23.5232 37.0372 23.5319 37.0156C23.5406 36.9939 23.5529 36.9782 23.5688 36.9685L24.1728 36.601C24.3083 36.5185 24.4407 36.4981 24.5698 36.5397C24.6989 36.5813 24.8095 36.6778 24.9017 36.8293L25.3748 37.6067C25.467 37.7582 25.5019 37.9008 25.4795 38.0346C25.4571 38.1684 25.3782 38.2766 25.2426 38.3591L24.9855 38.5155C24.846 38.6004 24.7116 38.6221 24.5825 38.5805C24.4534 38.5389 24.3427 38.4423 24.2506 38.2908L23.9995 37.8782C23.9655 37.8224 23.9705 37.7812 24.0143 37.7545ZM24.418 38.1889C24.5417 38.3922 24.6933 38.4393 24.8727 38.3302L25.1298 38.1737C25.3052 38.0669 25.3311 37.9119 25.2073 37.7086L25.0181 37.3976L24.2288 37.878L24.418 38.1889Z" fill="white"/>
<path d="M21.9638 37.6917L22.0027 37.676C22.0244 37.6673 22.0413 37.6656 22.0534 37.6707C22.0656 37.6759 22.089 37.6967 22.1237 37.733C22.1704 37.674 22.2128 37.6293 22.2509 37.5989C22.2889 37.5685 22.3318 37.5437 22.3794 37.5245L22.6132 37.4305C22.7604 37.3713 22.8934 37.3706 23.0123 37.4284C23.1311 37.4862 23.2271 37.6061 23.3002 37.7879L23.6424 38.6387C23.7138 38.8162 23.7267 38.9669 23.681 39.091C23.6371 39.2193 23.5415 39.3131 23.3943 39.3723L23.1605 39.4663C23.1129 39.4855 23.0648 39.4973 23.0163 39.5017C22.9677 39.5061 22.898 39.5015 22.807 39.4878L23.0917 40.1957C23.1143 40.252 23.104 40.2888 23.0607 40.3062L23.0217 40.3219C22.9698 40.3428 22.9325 40.3251 22.9099 40.2688L21.9198 37.8075C21.8972 37.7512 21.9118 37.7126 21.9638 37.6917ZM22.6345 39.0592C22.7216 39.2757 22.8712 39.3412 23.0834 39.2559L23.3107 39.1645C23.5012 39.0878 23.5511 38.937 23.4606 38.7118L23.121 37.8676C23.0304 37.6424 22.8899 37.5682 22.6994 37.6448L22.4721 37.7362C22.26 37.8216 22.1957 37.9681 22.2793 38.176L22.6345 39.0592Z" fill="white"/>
<path d="M19.2656 38.3231L19.3138 38.3143C19.3413 38.3092 19.3637 38.3145 19.3808 38.3304C19.3934 38.347 19.4018 38.3668 19.406 38.3898L19.6587 39.7597C19.7018 39.9937 19.8336 40.0904 20.0539 40.0498L20.1915 40.0244C20.3063 40.0033 20.3898 39.9546 20.4422 39.8785C20.4955 39.807 20.5119 39.7162 20.4916 39.6061L20.239 38.2362C20.2348 38.2132 20.2378 38.1913 20.2482 38.1704C20.2586 38.1495 20.2753 38.1369 20.2982 38.1327L20.3533 38.1226C20.4038 38.1132 20.4345 38.1384 20.4455 38.1981L20.6982 39.568C20.7413 39.802 20.873 39.8987 21.0933 39.8581L21.2448 39.8302C21.4742 39.7879 21.5682 39.6543 21.5268 39.4294L21.2716 38.0457C21.2606 37.9861 21.2849 37.9507 21.3446 37.9397L21.3928 37.9308C21.4203 37.9258 21.4426 37.9311 21.4598 37.947C21.4723 37.9636 21.4807 37.9834 21.485 38.0064L21.8265 39.8581C21.8307 39.8811 21.8295 39.9003 21.8229 39.9158C21.8125 39.9366 21.7935 39.9496 21.766 39.9547L21.7178 39.9636C21.6995 39.967 21.6826 39.9654 21.6671 39.9587C21.647 39.9529 21.6222 39.9338 21.5924 39.9013C21.5387 39.9444 21.4874 39.9752 21.4387 39.9937C21.3907 40.0168 21.3415 40.033 21.291 40.0423L21.1327 40.0715C20.9675 40.102 20.8083 40.0625 20.6553 39.9531C20.5917 40.0455 20.5257 40.1123 20.4573 40.1534C20.3844 40.1953 20.3089 40.2234 20.2309 40.2378L20.0932 40.2632C19.928 40.2937 19.7879 40.2673 19.6729 40.1841C19.5533 40.1018 19.4774 39.9734 19.4453 39.799L19.1926 38.4291C19.1816 38.3695 19.206 38.3341 19.2656 38.3231Z" fill="white"/>
<path d="M17.6394 38.3051L17.6814 38.3059C17.714 38.3066 17.7437 38.3375 17.7705 38.3987C17.8977 38.3406 18.0033 38.3124 18.0873 38.314L18.3392 38.3191C18.4979 38.3223 18.6205 38.3761 18.7071 38.4805C18.7937 38.5849 18.8352 38.7258 18.8316 38.9031L18.8134 39.8129C18.8098 39.9902 18.7627 40.1293 18.672 40.2302C18.5813 40.331 18.4566 40.3799 18.298 40.3767L17.5981 40.3626C17.5421 40.3615 17.5147 40.333 17.5158 40.277L17.5536 38.3944C17.5548 38.3337 17.5834 38.3039 17.6394 38.3051ZM17.7115 39.9448C17.7111 39.9635 17.7152 39.9916 17.7238 40.0291C17.7325 40.0619 17.7483 40.0879 17.7713 40.1071C17.7942 40.1262 17.8313 40.1409 17.8824 40.1513L18.3023 40.1597C18.5076 40.1638 18.6126 40.0469 18.6174 39.809L18.6355 38.9062C18.6404 38.6635 18.5402 38.5402 18.3349 38.5361L18.0899 38.5311C17.8613 38.5266 17.7447 38.6386 17.7401 38.8672C17.7338 39.1845 17.7291 39.4154 17.7262 39.56C17.7187 39.7046 17.7144 39.8025 17.7133 39.8539L17.7115 39.9448Z" fill="white"/>
<path d="M15.862 38.0438L15.9101 38.0528C15.956 38.0614 15.9733 38.0955 15.9622 38.1551L15.7056 39.5243C15.6618 39.7582 15.7407 39.8941 15.9426 39.9319L16.1903 39.9783C16.4058 40.0187 16.5347 39.9266 16.5768 39.7018L16.836 38.3189C16.8471 38.2593 16.8779 38.2342 16.9284 38.2436L16.9766 38.2527C17.0224 38.2612 17.0398 38.2954 17.0286 38.355L16.6818 40.2058C16.6775 40.2287 16.6695 40.2462 16.6577 40.2582C16.6405 40.274 16.6204 40.2797 16.5975 40.2754L16.5493 40.2664C16.5356 40.2638 16.5254 40.2548 16.5188 40.2393C16.5068 40.2276 16.4927 40.2012 16.4767 40.1602C16.36 40.2001 16.2512 40.2105 16.1503 40.1916L15.9026 40.1452C15.7512 40.1169 15.6391 40.0436 15.5663 39.9255C15.4935 39.8074 15.4734 39.6612 15.5061 39.4869L15.7626 38.1178C15.7738 38.0581 15.8069 38.0335 15.862 38.0438Z" fill="white"/>
<path d="M12.7357 36.7596L13.1584 37.021C13.3132 37.1168 13.4041 37.236 13.431 37.3789C13.4554 37.5257 13.4124 37.6884 13.3019 37.867L12.4919 39.1767C12.3888 39.3434 12.2649 39.4506 12.1202 39.4983C11.9715 39.5435 11.8218 39.5195 11.671 39.4262L11.2483 39.1648C11.0975 39.0715 11.0111 38.9495 10.9891 38.7987C10.9631 38.6455 11.0017 38.4856 11.1048 38.3189L11.2042 38.1581C11.2214 38.1303 11.242 38.1102 11.2662 38.0977C11.2904 38.0852 11.3164 38.0876 11.3442 38.1048L11.3858 38.1305C11.4374 38.1625 11.4424 38.2121 11.4007 38.2796L11.3012 38.4404C11.1638 38.6626 11.1903 38.8327 11.3808 38.9505L11.8035 39.2119C11.9901 39.3273 12.1521 39.2738 12.2895 39.0516L13.0958 37.7477C13.2358 37.5215 13.2124 37.3507 13.0259 37.2353L12.6032 36.9739C12.4127 36.8561 12.2475 36.9103 12.1076 37.1366L12.0082 37.2973C11.9713 37.3568 11.9271 37.3706 11.8755 37.3387L11.8339 37.313C11.81 37.2982 11.7983 37.2773 11.7987 37.2501C11.7951 37.2204 11.7994 37.1956 11.8117 37.1758L11.9148 37.0091C12.0252 36.8305 12.1516 36.7193 12.2939 36.6756C12.4337 36.6359 12.581 36.6639 12.7357 36.7596Z" fill="white"/>
<path d="M11.2946 35.7215L11.3316 35.7536C11.3493 35.7689 11.3573 35.7882 11.3556 35.8115C11.3504 35.8317 11.3402 35.8506 11.3249 35.8682L9.5865 37.8723C9.54675 37.9182 9.50925 37.9258 9.474 37.8952L9.43698 37.8631C9.39468 37.8264 9.3934 37.7851 9.43316 37.7393L11.1715 35.7352C11.2113 35.6894 11.2523 35.6848 11.2946 35.7215Z" fill="white"/>
<path d="M9.96378 34.3797L9.99185 34.411C10.0137 34.4353 10.0114 34.4781 9.98496 34.5395C10.0498 34.5628 10.1046 34.5889 10.1493 34.6177C10.1909 34.6431 10.2304 34.6766 10.2678 34.7182L10.4316 34.9005C10.5345 35.0151 10.5789 35.1414 10.5649 35.2794C10.5509 35.4174 10.478 35.5457 10.346 35.6642L9.30455 36.5998C9.26289 36.6372 9.2249 36.6368 9.1906 36.5986L9.15318 36.557C9.13758 36.5396 9.13205 36.5195 9.13658 36.4966C9.13764 36.4768 9.14685 36.4592 9.16421 36.4436L10.2005 35.5127C10.381 35.3505 10.4042 35.1948 10.2701 35.0455L10.1064 34.8632C9.95672 34.6966 9.79682 34.6897 9.62671 34.8425L8.5748 35.7874C8.53314 35.8248 8.49516 35.8245 8.46085 35.7863L8.43279 35.755C8.41719 35.7377 8.41166 35.7176 8.41619 35.6947C8.41725 35.6749 8.42646 35.6572 8.44382 35.6416L9.84463 34.3833C9.88976 34.3427 9.92948 34.3416 9.96378 34.3797Z" fill="white"/>
<path d="M9.1902 33.2919L9.57095 33.8876C9.58352 33.9073 9.58571 33.928 9.57752 33.9499C9.56682 33.9678 9.55163 33.9831 9.53197 33.9956L7.29656 35.4244C7.24544 35.457 7.20732 35.4537 7.18219 35.4144L7.1558 35.3731C7.12815 35.3299 7.13989 35.2919 7.19101 35.2592L7.79852 34.8709C7.71647 34.8292 7.65824 34.7944 7.62383 34.7666C7.5869 34.7348 7.55461 34.6973 7.52697 34.654L7.39126 34.4417C7.30832 34.3119 7.28694 34.1788 7.32711 34.0424C7.36729 33.9059 7.46405 33.7887 7.61741 33.6907L8.41956 33.178C8.58078 33.075 8.72977 33.0351 8.86654 33.0585C8.99938 33.0843 9.10727 33.1622 9.1902 33.2919ZM7.73263 33.858C7.52423 33.9912 7.47532 34.1443 7.5859 34.3173L7.72161 34.5296C7.83973 34.7144 7.99709 34.744 8.1937 34.6184L9.30846 33.9059L8.99556 33.4163C8.88498 33.2433 8.72746 33.2221 8.52299 33.3528L7.73263 33.858Z" fill="white"/>
</svg>
